<?xml version="1.0" standalone="no"?><!DOCTYPE svg PUBLIC "-//W3C//DTD SVG 1.1//EN" "http://www.w3.org/Graphics/SVG/1.1/DTD/svg11.dtd"><svg t="1560908510111" class="icon" style="" viewBox="0 0 1024 1024" version="1.1" xmlns="http://www.w3.org/2000/svg" p-id="4009" xmlns:xlink="http://www.w3.org/1999/xlink" width="200" height="200"><defs><style type="text/css"></style></defs><path d="M93.09 46.545a46.545 46.545 0 0 0-46.545 46.546v837.818a46.545 46.545 0 0 0 46.546 46.546h837.818a46.545 46.545 0 0 0 46.546-46.546V93.091a46.545 46.545 0 0 0-46.546-46.546H93.091zM93.09 0h837.82A93.09 93.09 0 0 1 1024 93.09v837.82a93.09 93.09 0 0 1-93.09 93.09H93.09A93.09 93.09 0 0 1 0 930.91V93.09A93.09 93.09 0 0 1 93.09 0zM46.546 232.727h930.91v46.546H46.545v-46.546z" fill="#1296db" p-id="4010"></path><path d="M278.993 519.215l-0.093 0.512 0.093-0.512zM178.455 852.108l4.329 3.91a51.991 51.991 0 0 0-4.282-3.91z m99.608-327.122c0.418-1.629 0.418-2.094 0.465-1.582a97.699 97.699 0 0 0 6.563 21.643l7.214 7.354 3.026 12.382c1.257 5.12 2.56 9.495 3.537 12.055 1.397 3.584 2.933 7.075 4.515 10.52a551.612 551.612 0 0 1 17.176 16.01c13.684 13.499 21.038 31.093 22.9 51.945 0.465 7.355 0.698 14.104 0.698 20.294 0 10.985-2.048 21.784-6.144 31.977-4.189 10.426-10.473 19.875-18.572 28.532-7.26 7.82-16.29 15.035-26.205 21.411a155.788 155.788 0 0 1-50.176 22.016c-12.008 3.072-23.412 6.517-34.21 10.473-7.448 2.7-13.685 6.19-18.945 10.473 0.187-0.093-0.093 0.372-0.605 4.003-2.932 19.968-3.723 35.7-2.7 46.778a718.941 718.941 0 0 0 59.253 8.89 1594.927 1594.927 0 0 0 89.74 7.447 643.258 643.258 0 0 0 73.774 0.326c14.197-0.605 28.858-1.629 43.846-3.025a1152.698 1152.698 0 0 0 86.714-11.637c6.889-1.256 12.94-2.513 18.013-3.816 0.42-3.817 0.605-7.82 0.605-12.102a159.092 159.092 0 0 0-4.189-36.771 3.537 3.537 0 0 0-1.35-1.722 65.35 65.35 0 0 0-16.663-9.123 332.241 332.241 0 0 0-29.09-9.496 352.256 352.256 0 0 1-36.073-12.101 126.138 126.138 0 0 1-39.75-23.739 99.049 99.049 0 0 1-32.768-66.839c-0.698-10.24 0-20.526 1.815-28.951 3.258-19.363 10.659-35.654 24.436-47.849 4.05-3.63 8.984-7.866 15.733-13.498a289.978 289.978 0 0 0 4.003-9.263c1.396-3.723 2.746-8.098 4.003-13.218l5.027-20.667 9.402-4.794a153.135 153.135 0 0 0 1.443-14.894 94.487 94.487 0 0 0-0.42-5.819l-2.187-5.632-0.233-8.145a401.222 401.222 0 0 0-3.258-40.913 265.635 265.635 0 0 0-8.518-36.678 87.599 87.599 0 0 0-15.36-29.324H408.67l-13.684-13.964a381.673 381.673 0 0 1-8.285-8.797l-2.374-0.651a152.53 152.53 0 0 0-12.335-2.141c-6.283 0-13.032 0.558-20.34 1.675a79.593 79.593 0 0 0-17.967 5.12c-5.12 2.048-10.333 5.167-15.639 9.496-5.213 4.189-10.426 9.774-15.825 17.547a68.422 68.422 0 0 0-10.799 23.366 302.08 302.08 0 0 0-6.935 33.792 356.399 356.399 0 0 0-2.188 39.564v10.798l-3.584 7.308-0.605 3.956z m325.166 284.58c1.257 9.169 1.862 18.431 1.862 27.833a153.6 153.6 0 0 1-2.188 26.531 48.873 48.873 0 0 1-6.563 18.851c-2.094 2.979-7.4 5.865-15.918 8.611-8.565 2.793-19.27 5.353-32.21 7.68-12.893 2.327-27.275 4.608-43.1 6.75a1265.97 1265.97 0 0 1-47.477 5.398 903.121 903.121 0 0 1-85.644 4.19c-11.264 0-24.296-0.466-39.098-1.304a1899.334 1899.334 0 0 1-92.16-7.68 764.835 764.835 0 0 1-74.659-11.822c-8.983-1.909-14.475-3.957-16.57-6.051-3.724-2.98-6.656-12.474-8.75-28.486-2.095-15.965-1.257-36.771 2.513-62.371 2.048-14.43 7.82-25.553 17.175-33.233 9.356-7.634 20.2-13.731 32.489-18.2 12.288-4.468 25.228-8.424 38.772-11.822 13.498-3.445 25.274-8.518 35.282-15.36 7.912-5.12 14.056-10.008 18.432-14.709a46.033 46.033 0 0 0 9.402-14.056c1.862-4.655 2.793-9.589 2.793-14.709 0-5.12-0.187-10.891-0.605-17.268-0.838-9.402-3.864-16.617-9.077-21.737a461.824 461.824 0 0 0-17.222-16.011 29.463 29.463 0 0 1-8.378-11.171 324.515 324.515 0 0 1-6.61-15.035 162.444 162.444 0 0 1-5.585-18.525 59.95 59.95 0 0 1-3.723-4.515 101.748 101.748 0 0 1-10.054-24.296 105.425 105.425 0 0 1-4.05-18.2 42.263 42.263 0 0 1 0.326-13.73 34.49 34.49 0 0 1 3.119-12.195c0-14.895 0.838-29.79 2.513-44.73 1.63-12.382 4.375-25.787 8.1-40.309 3.723-14.476 9.774-27.462 18.152-39.005 7.447-10.659 15.593-19.503 24.343-26.53a109.847 109.847 0 0 1 27.183-16.292 126.138 126.138 0 0 1 28.439-8.006c9.588-1.49 18.758-2.234 27.462-2.234 9.635 0.838 17.454 2.048 23.459 3.538 6.05 1.49 10.938 3.258 14.708 5.399 3.724 2.141 6.982 4.701 9.681 7.68 2.7 2.979 5.54 5.958 8.425 8.983h11.87a37.702 37.702 0 0 1 10.937 1.583 30.208 30.208 0 0 1 10.66 6.05c3.537 3.026 7.354 7.262 11.543 12.8 9.588 12.8 16.663 26.764 21.224 41.892a311.855 311.855 0 0 1 10.008 43.147c2.094 15.826 3.35 31.372 3.723 46.685 0.885 2.141 1.49 4.701 1.909 7.68a92.625 92.625 0 0 1 0 26.857 93.23 93.23 0 0 1-3.724 20.154 36.492 36.492 0 0 1-5.632 11.171 19.363 19.363 0 0 1-6.889 6.423 162.444 162.444 0 0 1-5.585 18.525c-2.141 5.12-4.329 10.147-6.61 15.035a29.463 29.463 0 0 1-8.424 11.17c-7.075 6.005-12.94 10.985-17.501 15.035-4.562 4.05-7.727 10.984-9.356 20.806-1.257 5.957-1.676 11.915-1.257 17.873a53.015 53.015 0 0 0 17.827 35.84c6.051 5.539 14.43 10.426 25.274 14.708a307.2 307.2 0 0 0 31.558 10.52c11.45 3.211 22.528 6.842 33.14 10.891 10.613 4.05 20.108 9.31 28.393 15.64 8.378 6.423 14.197 14.708 17.548 24.948 1.675 6.004 3.118 13.545 4.375 22.714zM845.591 512c21.411 0 38.773 10.38 38.773 23.273s-17.315 23.272-38.773 23.272H690.41c-21.411 0-38.773-10.38-38.773-23.272S668.951 512 690.41 512H845.59z m0 139.636c21.411 0 38.773 10.38 38.773 23.273s-17.315 23.273-38.773 23.273H690.41c-21.411 0-38.773-10.38-38.773-23.273s17.315-23.273 38.773-23.273H845.59zM574.045 93.091c17.222 0 31.046 20.806 31.046 46.545 0 25.74-13.87 46.546-31.046 46.546h-124.09c-17.222 0-31.046-20.806-31.046-46.546s13.87-46.545 31.046-46.545h124.09z" fill="#1296db" p-id="4011"></path></svg>