<?xml version="1.0" standalone="no"?><!DOCTYPE svg PUBLIC "-//W3C//DTD SVG 1.1//EN" "http://www.w3.org/Graphics/SVG/1.1/DTD/svg11.dtd"><svg t="1560508313728" class="icon" style="" viewBox="0 0 1024 1024" version="1.1" xmlns="http://www.w3.org/2000/svg" p-id="6315" xmlns:xlink="http://www.w3.org/1999/xlink" width="200" height="200"><defs><style type="text/css"></style></defs><path d="M513.1 1021.8c-69 0-135.9-13.5-198.9-40.2-60.8-25.7-115.5-62.6-162.4-109.5C105 825.2 68.1 770.6 42.4 709.8c-26.7-63-40.2-129.9-40.2-198.9S15.7 375 42.4 312c25.7-60.8 62.6-115.5 109.5-162.4 46.9-46.9 101.5-83.7 162.4-109.5C377.2 13.5 444.2 0 513.1 0 582.1 0 649 13.5 712 40.2c60.8 25.7 115.5 62.6 162.4 109.5 46.9 46.9 83.7 101.5 109.5 162.4 26.7 63 40.2 129.9 40.2 198.9s-13.5 135.9-40.2 198.9c-25.7 60.8-62.6 115.5-109.5 162.4C827.5 919 772.8 955.9 712 981.6c-63 26.7-129.9 40.2-198.9 40.2z m0-941.1c-114.9 0-223 44.8-304.2 126-81.3 81.3-126 189.3-126 304.2s44.8 223 126 304.2c81.3 81.3 189.3 126 304.2 126s223-44.8 304.2-126c81.3-81.3 126-189.3 126-304.2s-44.8-223-126-304.2c-81.2-81.3-189.3-126-304.2-126z" p-id="6316" fill="#1296db"></path><path d="M279.4 591.3c0 7.1-5.7 10.6-17.1 10.6-11.4 0-17.1-3.5-17.1-10.6V444.4h-13.3c-3.4 0-5.8-1.1-7.1-3.3-1.3-2.2-1.9-6.7-1.9-13.6 0-6.5 0.9-11.1 2.6-13.6 1.7-2.5 4.4-3.8 8-3.8h27.2c12.5 0 18.8 4.7 18.8 14.1v167.1zM372.4 406.6c12 0 22.2 2.7 30.6 8 8.4 5.4 15.3 12.5 20.5 21.5 5.3 9 9.1 19.4 11.4 31.1 2.4 11.8 3.5 24.2 3.5 37.3 0 13.1-1.4 25.5-4.1 37.3-2.7 11.8-6.8 22.1-12.2 31-5.4 8.9-12.3 16-20.7 21.2-8.3 5.3-18.1 7.9-29.4 7.9-11.2 0-21-2.6-29.2-7.8-8.3-5.2-15.1-12.1-20.5-20.9-5.4-8.8-9.5-19-12.1-30.7-2.6-11.7-3.9-24.1-3.9-37.1 0-13.1 1.2-25.6 3.7-37.5s6.3-22.5 11.6-31.6c5.3-9.1 12.1-16.3 20.5-21.6 8.4-5.4 18.5-8.1 30.3-8.1z m0 161c5.8 0 10.7-1.9 14.8-5.6 4.1-3.7 7.3-8.6 9.8-14.6 2.4-6 4.2-12.7 5.3-20.1 1.1-7.4 1.6-15 1.6-22.6 0-7.8-0.5-15.7-1.6-23.8-1.1-8.1-2.9-15.4-5.4-21.9-2.5-6.5-5.8-11.8-9.8-15.9-4-4.1-8.9-6.1-14.7-6.1-5.8 0-10.7 2-14.7 6.1s-7.3 9.4-9.8 15.9c-2.5 6.5-4.4 13.8-5.6 21.9-1.2 8.1-1.8 16.2-1.8 24.3 0 7.6 0.5 15.2 1.6 22.7s2.9 14.2 5.4 20c2.5 5.8 5.8 10.5 9.8 14.1 4.1 3.8 9.1 5.6 15.1 5.6zM526.3 406.6c12 0 22.2 2.7 30.6 8 8.4 5.4 15.3 12.5 20.5 21.5 5.3 9 9.1 19.4 11.4 31.1 2.4 11.8 3.5 24.2 3.5 37.3 0 13.1-1.4 25.5-4.1 37.3-2.7 11.8-6.8 22.1-12.2 31-5.4 8.9-12.3 16-20.7 21.2-8.3 5.3-18.1 7.9-29.4 7.9-11.2 0-21-2.6-29.2-7.8-8.3-5.2-15.1-12.1-20.5-20.9-5.4-8.8-9.5-19-12.1-30.7-2.6-11.7-3.9-24.1-3.9-37.1 0-13.1 1.2-25.6 3.7-37.5 2.4-12 6.3-22.5 11.6-31.6 5.3-9.1 12.1-16.3 20.5-21.6 8.4-5.4 18.5-8.1 30.3-8.1z m0 161c5.8 0 10.7-1.9 14.8-5.6 4.1-3.7 7.3-8.6 9.8-14.6 2.4-6 4.2-12.7 5.3-20.1 1.1-7.4 1.6-15 1.6-22.6 0-7.8-0.5-15.7-1.6-23.8-1.1-8.1-2.9-15.4-5.4-21.9-2.5-6.5-5.8-11.8-9.8-15.9-4-4.1-8.9-6.1-14.7-6.1-5.8 0-10.7 2-14.7 6.1s-7.3 9.4-9.8 15.9c-2.5 6.5-4.4 13.8-5.6 21.9-1.2 8.1-1.8 16.2-1.8 24.3 0 7.6 0.5 15.2 1.6 22.7s2.9 14.2 5.4 20c2.5 5.8 5.8 10.5 9.8 14.1 4.2 3.8 9.1 5.6 15.1 5.6zM706.4 460.7c0 19.8-4 34.9-12.1 45.3-8.1 10.4-19 15.6-32.8 15.6-13.8 0-24.7-5.2-32.8-15.6-8.1-10.4-12.1-25.5-12.1-45.3 0-19.8 4-34.9 12.1-45.3 8.1-10.4 19-15.6 32.8-15.6 13.8 0 24.7 5.2 32.8 15.6 8.1 10.4 12.1 25.5 12.1 45.3z m-58.8 170.5c-3.1 4-6.7 5.8-10.9 5.3s-7.9-2-11.2-4.8c-3.1-2.2-5-5.3-5.8-9.2-0.8-4 0.2-7.5 3.1-10.6l180.6-214.6c3.3-4.2 6.9-6.3 10.9-6.3s8.1 1.8 12.2 5.4c3.6 2.9 5.8 6.2 6.4 9.8 0.6 3.6-0.9 7.4-4.5 11.4L647.6 631.2z m-1.3-170.5c0 12 1.2 20.8 3.5 26.5 2.4 5.7 6.3 8.6 11.7 8.6 5.4 0 9.3-2.9 11.7-8.6 2.4-5.7 3.5-14.6 3.5-26.5 0-12-1.2-20.8-3.5-26.5-2.4-5.7-6.3-8.6-11.7-8.6-5.4 0-9.3 2.9-11.7 8.6-2.3 5.7-3.5 14.5-3.5 26.5z m195.5 101.5c0 19.8-4 34.9-12.1 45.3-8.1 10.4-19 15.6-32.8 15.6-13.8 0-24.7-5.2-32.8-15.6C756 597.1 752 582 752 562.2c0-19.8 4-34.9 12.1-45.3 8.1-10.4 19-15.6 32.8-15.6 13.8 0 24.7 5.2 32.8 15.6 8.1 10.4 12.1 25.5 12.1 45.3z m-60.1 0c0 12 1.2 20.8 3.5 26.5 2.4 5.7 6.3 8.6 11.7 8.6 5.4 0 9.3-2.9 11.7-8.6 2.4-5.7 3.5-14.6 3.5-26.5 0-12-1.2-20.8-3.5-26.5-2.4-5.7-6.3-8.6-11.7-8.6-5.4 0-9.3 2.9-11.7 8.6-2.3 5.6-3.5 14.5-3.5 26.5z" p-id="6317" fill="#1296db"></path></svg>