<?xml version="1.0" standalone="no"?><!DOCTYPE svg PUBLIC "-//W3C//DTD SVG 1.1//EN" "http://www.w3.org/Graphics/SVG/1.1/DTD/svg11.dtd"><svg t="1559634494513" class="icon" style="" viewBox="0 0 1181 1024" version="1.1" xmlns="http://www.w3.org/2000/svg" p-id="14820" xmlns:xlink="http://www.w3.org/1999/xlink" width="230.6640625" height="200"><defs><style type="text/css"></style></defs><path d="M78.770018 945.230769h1063.463385a39.384615 39.384615 0 1 1 0 78.769231H39.306634A39.266462 39.266462 0 0 1 0.000788 984.497231V39.502769a39.384615 39.384615 0 1 1 78.76923 0V945.230769z m62.54277-112.797538a38.872615 38.872615 0 0 1-7.837539-54.350769l254.582154-340.086154a38.557538 38.557538 0 0 1 31.113846-15.556923 38.596923 38.596923 0 0 1 21.661539 6.57723l228.903384 154.19077 403.416616-321.378462a38.596923 38.596923 0 0 1 54.547692 6.183385 38.596923 38.596923 0 0 1 8.192 28.553846 38.596923 38.596923 0 0 1-14.375385 25.993846L695.848172 661.661538a38.872615 38.872615 0 0 1-45.843692 1.851077l-221.932308-149.464615-232.448 310.547692a38.518154 38.518154 0 0 1-31.113846 15.596308 38.518154 38.518154 0 0 1-23.236923-7.758769z" fill="#20A0FF" p-id="14821"></path></svg>