<?xml version="1.0" standalone="no"?><!DOCTYPE svg PUBLIC "-//W3C//DTD SVG 1.1//EN" "http://www.w3.org/Graphics/SVG/1.1/DTD/svg11.dtd"><svg t="1561340755902" class="icon" viewBox="0 0 1024 1024" version="1.1" xmlns="http://www.w3.org/2000/svg" p-id="608" xmlns:xlink="http://www.w3.org/1999/xlink" width="200" height="200"><defs><style type="text/css"></style></defs><path d="M704 289.28H470.016c-11.264 0-20.48 9.216-20.48 20.48s9.216 20.48 20.48 20.48h233.984c11.264 0 20.48-9.216 20.48-20.48s-9.216-20.48-20.48-20.48z m0 125.44H470.016c-11.264 0-20.48 9.216-20.48 20.48s9.216 20.48 20.48 20.48h233.984c11.264 0 20.48-9.216 20.48-20.48s-9.216-20.48-20.48-20.48z" p-id="609" fill="#1296db"></path><path d="M932.864 609.792V151.04c-0.512-55.808-45.056-99.84-100.352-99.84H357.888c-54.784 0-99.84 45.056-99.84 99.84v16.384H195.584c-54.784 0-99.84 45.056-99.84 99.84v341.504c-44.544 13.312-76.8 53.76-76.8 101.888v161.28c0 58.88 48.128 105.984 105.984 105.984h88.064c2.048 0.512 3.584 0.512 5.632 0.512 13.824 0 25.088-11.264 25.088-25.088s-10.752-24.576-24.576-25.088v-0.512H124.928c-31.232 0-56.32-25.088-56.32-56.32v-161.28c0-31.232 25.088-56.32 56.32-56.32h279.04c23.552 38.912 65.024 61.952 111.104 61.952 43.008 0 82.944-20.992 107.52-56.32 2.56-3.584 6.144-5.632 10.752-5.632h265.728c31.232 0 56.32 25.088 56.32 56.32v161.28c0 31.232-25.088 56.32-56.32 56.32H381.44v0.512c-13.824 0-25.088 11.264-25.088 25.088s11.264 25.088 25.088 25.088c2.048 0 3.584 0 5.632-0.512h512c58.88 0 105.984-48.128 105.984-105.984v-161.28c0-47.104-30.208-87.04-72.192-100.864z m-300.544-5.632c-20.48 0-39.936 10.24-51.2 26.624-14.336 20.992-38.912 34.816-66.048 34.816-31.744 0-58.88-17.92-72.192-45.056-5.12-10.752-16.384-16.896-28.16-16.896H307.712V475.136c0-13.824-11.264-25.088-25.088-25.088s-25.088 11.264-25.088 25.088V604.16H145.408V267.264c0-27.648 22.528-50.176 50.176-50.176h62.464v62.464c0 13.824 11.264 25.088 25.088 25.088s25.088-11.264 25.088-25.088V151.04c0-27.648 22.528-50.176 50.176-50.176h475.136c27.648 0 50.176 22.528 50.176 50.176V604.16h-251.392z" p-id="610" fill="#1296db"></path><path d="M320 874.496c0 11.264 9.216 20.48 20.48 20.48s20.48-9.216 20.48-20.48-9.216-20.48-20.48-20.48-20.48 9.216-20.48 20.48zM324.096 352.768c-11.264 0-20.48 9.216-20.48 20.48v57.856c0 11.264 9.216 20.48 20.48 20.48s20.48-9.216 20.48-19.968V373.248c0-11.264-9.216-20.48-20.48-20.48z" p-id="611" fill="#1296db"></path></svg>