<?xml version="1.0" standalone="no"?><!DOCTYPE svg PUBLIC "-//W3C//DTD SVG 1.1//EN" "http://www.w3.org/Graphics/SVG/1.1/DTD/svg11.dtd"><svg t="1561961394212" class="icon" viewBox="0 0 1792 1024" version="1.1" xmlns="http://www.w3.org/2000/svg" p-id="8437" xmlns:xlink="http://www.w3.org/1999/xlink" width="350" height="200"><defs><style type="text/css"></style></defs><path d="M742.4 524.8h115.2v236.8h-115.2zM1062.4 499.2h140.8v192h-140.8zM569.6 524.8h115.2v236.8H569.6zM1062.4 256h140.8v192h-140.8z" fill="#1296db" p-id="8438"></path><path d="M1536 0H345.6c-140.8 0-256 115.2-256 256v614.4L0 1024h1536c140.8 0 256-115.2 256-256V256c0-140.8-115.2-256-256-256zM300.8 793.6h-64V204.8h57.6v588.8z m134.4 70.4h-64V134.4h57.6v729.6z m473.6 0h-57.6v-51.2H569.6v51.2H512V473.6h396.8v390.4zM640 345.6l38.4-38.4c44.8 32 83.2 70.4 121.6 102.4l-44.8 44.8c-38.4-44.8-83.2-83.2-115.2-108.8z m307.2-51.2H588.8c-25.6 51.2-57.6 102.4-89.6 147.2l-44.8-44.8c64-83.2 115.2-179.2 153.6-268.8l57.6 19.2c-12.8 32-25.6 64-38.4 89.6h326.4v57.6z m313.6 518.4h-57.6v-64h-140.8v70.4h-57.6V198.4h256v614.4z m454.4-460.8h-108.8v403.2c0 64-32 102.4-96 102.4h-128c0-19.2-6.4-38.4-12.8-64 51.2 6.4 96 6.4 121.6 6.4 32 0 51.2-19.2 51.2-51.2V352h-268.8v-57.6h268.8V128h57.6v166.4h108.8v57.6zM1312 448l51.2-25.6c38.4 70.4 70.4 134.4 89.6 172.8-12.8 6.4-32 12.8-57.6 32-12.8-44.8-44.8-108.8-83.2-179.2z" fill="#1296db" p-id="8439"></path></svg>