<?xml version="1.0" standalone="no"?><!DOCTYPE svg PUBLIC "-//W3C//DTD SVG 1.1//EN" "http://www.w3.org/Graphics/SVG/1.1/DTD/svg11.dtd"><svg t="1560415627811" class="icon" style="" viewBox="0 0 1024 1024" version="1.1" xmlns="http://www.w3.org/2000/svg" p-id="6118" xmlns:xlink="http://www.w3.org/1999/xlink" width="200" height="200"><defs><style type="text/css"></style></defs><path d="M959.636375 894.387632H64.295636c-24.147663 0-43.815636 19.625309-43.815636 43.815636 0 24.147663 19.667973 43.815636 43.815636 43.815636h895.340739c24.147663 0 43.815636-19.667973 43.815636-43.815636 0-24.147663-19.667973-43.815636-43.815636-43.815636zM285.208356 762.89806c5.844929 0 11.988504-1.279911 18.132079-3.66908h0.383974l249.369419-117.154563 2.559822-1.279912 424.162663-424.418644c14.548327-14.463 22.483778-33.704335 22.483778-54.182919s-8.063442-39.719919-22.483778-54.182919L894.232899 22.426609a76.666697 76.666697 0 0 0-108.493829 0.127991l-422.498778 422.242795-1.919867 1.919867-1.15192 2.431832-116.642599 247.961516c-6.868858 14.718982-5.844929 30.803203 2.815805 44.455592 8.575407 13.183088 23.379716 21.331858 38.823982 21.331858zM788.938848 142.99427l50.855149-50.769822 70.139149 70.096485-50.855149 50.855149-70.139149-70.139149zM371.815699 630.213904l62.203698-132.38551 292.971736-292.843745 70.139149 70.139148-292.971736 292.843745-132.342847 62.203698z" fill="#ffffff" p-id="6119"></path></svg>