<?xml version="1.0" standalone="no"?><!DOCTYPE svg PUBLIC "-//W3C//DTD SVG 1.1//EN" "http://www.w3.org/Graphics/SVG/1.1/DTD/svg11.dtd"><svg t="1560908619318" class="icon" style="" viewBox="0 0 1024 1024" version="1.1" xmlns="http://www.w3.org/2000/svg" p-id="8120" xmlns:xlink="http://www.w3.org/1999/xlink" width="200" height="200"><defs><style type="text/css"></style></defs><path d="M745.55665689 300.17265686a52.36298657 52.36298657 0 0 0-52.30341485 52.3183082 51.88641778 51.88641778 0 0 0 1.95095269 14.14813348l-94.70313775 101.49424172a52.12470217 52.12470217 0 0 0-48.63979304 15.29487627l-68.3131451-14.62470146a51.94598868 51.94598868 0 0 0-49.41421794-35.14694266 52.37787908 52.37787908 0 0 0-52.30341567 52.31830821 51.38006314 51.38006314 0 0 0 0.71485317 8.47398724l-87.86735457 75.29785592a51.6481334 51.6481334 0 0 0-16.23312214-2.65091336 52.37787908 52.37787908 0 0 0-52.31830819 52.31830821 51.94598868 51.94598868 0 0 0 15.32466293 37.03832363 51.97577453 51.97577453 0 0 0 36.99364526 15.32466294 52.36298657 52.36298657 0 0 0 52.28852317-52.3183082 51.48431323 51.48431323 0 0 0-0.71485318-8.45909473l87.86735458-75.31274844a51.6630259 51.6630259 0 0 0 16.24801464 2.60623499 51.75238267 51.75238267 0 0 0 37.97656871-16.38204896l68.34293097 14.65448731a51.94598868 51.94598868 0 0 0 49.39932458 35.08737093 52.30341568 52.30341568 0 0 0 50.33756964-66.46644168l94.71803028-101.4942409a51.84173941 51.84173941 0 0 0 10.64833181 1.10206521 52.36298657 52.36298657 0 0 0 52.22895145-52.30341567 52.36298657 52.36298657 0 0 0-52.22895145-52.3183082z" fill="#1296db" p-id="8121"></path><path d="M511.99331345 90.125C279.36821424 90.125 90.1257597 279.36745453 90.1257597 511.99255374a418.48689468 418.48689468 0 0 0 79.06572621 245.59670325 27.07505996 27.07505996 0 0 0 2.47220068 3.41044491 426.75238257 426.75238257 0 0 0 146.47041293 125.62053223 422.0909448 422.0909448 0 0 0 193.85921393 47.23987334 421.10802218 421.10802218 0 0 0 209.73490822-55.92235912 425.63542483 425.63542483 0 0 0 150.67017527-146.85762497 27.56652127 27.56652127 0 0 0 2.09988035-3.51469418 420.69102429 420.69102429 0 0 0 59.37748242-215.57287546C933.8757597 279.36745453 744.61841265 90.125 511.99331345 90.125z m0 789.43606072a366.71961868 366.71961868 0 0 1-271.77819736-120.34849136 233.6527002 233.6527002 0 0 1 35.9213659-2.78494849 211.86457526 211.86457526 0 0 1 72.70651347 12.53971446c26.28574255 9.56115994 51.14177957 14.20770438 75.95313738 14.20770437 36.68089747 0 67.40468591-9.9036936 99.94539277-20.38820526 17.32029401-5.58478949 35.23629859-11.363185 54.67136627-15.68208829a176.61338333 176.61338333 0 0 1 38.72120773-4.46783175c24.08161212 0 44.18685461 5.48054022 65.61755337 11.3036141 18.88403467 5.12311322 38.40845911 10.42494077 60.49444016 11.48232678 2.9785545 0.14892764 5.95710901 0.20849854 9.03991278 0.20849936a214.05381235 214.05381235 0 0 0 26.06235068-1.65309824 366.27283576 366.27283576 0 0 1-267.35504315 115.58280432z m234.84412216-168.42235967c-16.17355042-0.75953156-32.03435303-5.07843567-48.83339987-9.63562335l-2.33816474 8.56334399 2.18923709-8.66759326c-22.63701324-6.15071502-48.29725937-13.13542502-79.79547272-13.13542501a229.67633057 229.67633057 0 0 0-50.39714053 5.73371712c-21.86258917 4.86993631-41.01469409 11.03554385-59.57108762 17.02243872-29.54725983 9.51648157-55.10325668 17.75218442-83.22081015 17.75218442-18.43725173 0-37.23193048-3.57426507-57.42652971-10.93129459a267.05718787 267.05718787 0 0 0-91.57565479-15.95015936 282.23292315 282.23292315 0 0 0-72.48312159 9.4122323 365.24523396 365.24523396 0 0 1-58.96048452-199.30996829c0-202.67573483 164.89277215-367.56850699 367.56850699-367.56850699s367.56850699 164.89277215 367.56850616 367.56850699a366.71961868 366.71961868 0 0 1-48.52065124 182.31731543c-14.25238275 5.95710901-45.42295495 16.97776035-77.88919757 16.99265286-2.11477368-0.01489253-4.24443987-0.0595709-6.31453519-0.16382098z" fill="#1296db" p-id="8122"></path></svg>