<?xml version="1.0" standalone="no"?><!DOCTYPE svg PUBLIC "-//W3C//DTD SVG 1.1//EN" "http://www.w3.org/Graphics/SVG/1.1/DTD/svg11.dtd"><svg t="1561961340305" class="icon" viewBox="0 0 1024 1024" version="1.1" xmlns="http://www.w3.org/2000/svg" p-id="7591" xmlns:xlink="http://www.w3.org/1999/xlink" width="200" height="200"><defs><style type="text/css"></style></defs><path d="M275.97 481.56h474.06c9.94 0 18-8.06 18-18v-28.01c0-9.94-8.06-18-18-18H275.97c-9.94 0-18 8.06-18 18v28.01c0 9.94 8.06 18 18 18zM751.05 577.36h-476.1c-9.94 0-18 8.06-18 18v27.92c0 9.94 8.06 18 18 18h476.1c9.94 0 18-8.06 18-18v-27.92c0-9.94-8.06-18-18-18zM750.03 737.13H275.97c-9.94 0-18 8.06-18 18v27.92c0 9.94 8.06 18 18 18h474.06c9.94 0 18-8.06 18-18v-27.92c0-9.94-8.06-18-18-18z" p-id="7592" fill="#1296db"></path><path d="M879.07 63.56H146.93c-9.94 0-18 8.06-18 18v859.33c0 9.94 8.06 18 18 18h732.15c9.94 0 18-8.06 18-18V81.56c-0.01-9.95-8.06-18-18.01-18z m-173.21 63.72L664.8 243.21a17.997 17.997 0 0 1-17 12.07H376.22c-7.77 0-14.66-4.98-17.09-12.36l-38.84-115.64h385.57z m127.2 749.69c0 9.94-8.06 18-18 18H210.94c-9.94 0-18-8.06-18-18V145.28c0-9.94 8.06-18 18-18h46.35l59.62 179.66a18.003 18.003 0 0 0 17.1 12.39h357.98c7.78 0 14.68-5 17.1-12.39l59.62-179.66h46.35c9.94 0 18 8.06 18 18v731.69z" p-id="7593" fill="#1296db"></path></svg>