<?xml version="1.0" standalone="no"?><!DOCTYPE svg PUBLIC "-//W3C//DTD SVG 1.1//EN" "http://www.w3.org/Graphics/SVG/1.1/DTD/svg11.dtd"><svg t="1560508235275" class="icon" style="" viewBox="0 0 1024 1024" version="1.1" xmlns="http://www.w3.org/2000/svg" p-id="4514" xmlns:xlink="http://www.w3.org/1999/xlink" width="200" height="200"><defs><style type="text/css"></style></defs><path d="M957.44 920.576v1.024c0 19.968-16.384 36.864-36.864 36.864L66.56 957.952V103.936c0-19.968 16.384-36.864 36.864-36.864h1.024c19.968 0 36.864 16.384 36.864 36.864V563.2l93.184-197.632c6.144-12.8 18.432-22.016 32.768-23.552s28.16 4.096 37.376 15.36l212.48 269.312 373.76-435.712h0.512c6.656-7.68 16.896-12.288 27.648-12.288 20.48 0 37.376 16.896 37.376 37.376 0 12.288-6.144 23.04-15.36 30.208l-393.728 458.752c-8.192 9.216-19.968 14.848-32.256 14.336-12.288-0.512-24.064-6.144-31.744-15.872L279.04 445.952 141.312 737.28v146.432h779.264c19.968 0 36.864 16.384 36.864 36.864z" p-id="4515" fill="#1296db"></path></svg>