<?xml version="1.0" standalone="no"?><!DOCTYPE svg PUBLIC "-//W3C//DTD SVG 1.1//EN" "http://www.w3.org/Graphics/SVG/1.1/DTD/svg11.dtd"><svg t="1560908199872" class="icon" style="" viewBox="0 0 1152 1024" version="1.1" xmlns="http://www.w3.org/2000/svg" p-id="1146" xmlns:xlink="http://www.w3.org/1999/xlink" width="225" height="200"><defs><style type="text/css"></style></defs><path d="M1152 66.048C1152 32.128 1119.744 0 1080 0H72C32.256 0 0 32.256 0 66.048v659.904c0 33.92 32.256 66.048 72 66.048h1008c39.744 0 72-32.256 72-66.048V66.048z m-64 661.952H64V57.6h1024v670.4z m-1088 240c0 21.12 53.504 32 72 32h1008c60.992 0 72-10.88 72-32v-32H0v32z" p-id="1147" fill="#1296db"></path><path d="M519.104 528.128a29.44 29.44 0 0 0 44.928 0.704l238.08-270.336 84.992 100.288a29.504 29.504 0 0 0 44.928-38.08L824.96 194.304a29.504 29.504 0 0 0-44.608-0.384L542.72 463.872 411.712 304.128a29.504 29.504 0 0 0-46.464 1.152L222.72 496.832a29.504 29.504 0 0 0 47.296 35.136l120-161.28L519.104 528z" p-id="1148" fill="#1296db"></path></svg>