<?xml version="1.0" standalone="no"?><!DOCTYPE svg PUBLIC "-//W3C//DTD SVG 1.1//EN" "http://www.w3.org/Graphics/SVG/1.1/DTD/svg11.dtd"><svg t="1560508370345" class="icon" style="" viewBox="0 0 1024 1024" version="1.1" xmlns="http://www.w3.org/2000/svg" p-id="8147" xmlns:xlink="http://www.w3.org/1999/xlink" width="200" height="200"><defs><style type="text/css"></style></defs><path d="M246.39310962 91.33978851v6.66687261c0 21.16570112-0.19418112 42.13722112 0.42072519 63.27055815 0.58254222 16.66718037 9.96794482 28.80347705 24.07841223 36.24707072 21.74824334 11.55375445 43.49648555 10.35630592 63.46473813-4.5308837 11.35957333-8.41449927 17.6380837-19.74170851 17.63808484-34.24053703V97.03575666v-5.50178703H678.99543666c0 1.58580963 0.19418112 3.36579925 0.19418112 5.11342592 0 19.41807445 0.61490517 38.96560185-0.19418112 58.38367631-0.97090333 22.13660445 13.13956295 39.54814407 32.36345742 46.40919665 18.96498517 6.86105259 37.21797518 4.91924594 54.04697259-6.86105258 12.94538297-9.19122147 19.57989149-21.94242333 19.57989148-37.99469852-0.19418112-19.57989149 0-39.15978297 0-58.77203741v-6.05196629c1.94180779-0.19418112 3.3334363-0.19418112 4.72506482-0.19418112 26.2144 0 52.68770816-0.22654407 78.93447111 0 32.52527445 0.3883611 60.74620814 11.32721038 82.68863147 36.02052778 14.69300963 16.66718037 21.13333703 36.44125184 21.13333816 58.3836763v349.07224406c0 122.85168185-0.58254222 245.86518073 0.19417999 368.68450076 0.42072519 51.32844259-36.02052779 84.24207815-75.79521593 93.43329963a136.08833593 136.08833593 0 0 1-30.97182777 3.33343517c-233.34052295 0.19418112-466.68104704 0.19418112-699.98920704 0.19418112-26.86166926 0-51.32844259-6.63450851-72.49414258-23.49587002-22.71914667-18.22062592-34.07872-41.74885888-34.07872-70.90833294v-306.38484594c0-136.34724295 0.58254222-272.88866816-0.38836224-409.20354702-0.3883611-54.27351666 37.21797518-86.60460999 77.38102557-95.7958326a110.03575296 110.03575296 0 0 1 25.27585962-2.94507406c27.02348629-0.3883611 54.27351666-0.19418112 81.29700296-0.19418112 0.77672334-0.3883611 1.58580963-0.3883611 3.55998037-0.3883611z m658.46689223 256.05967076H126.32468594V895.47459925c0.19418112 7.28177778 2.91271111 13.75446926 8.02613703 18.83553224 8.80286037 8.80286037 19.96825259 11.00357518 31.94273109 11.00357518h696.04086557c4.5308837 0 9.22358557-0.22654407 13.72210631-0.8090863 14.88718962-2.16835186 28.99765703-12.94538297 28.99765703-32.33109333-0.19418112-179.61718557-0.19418112-359.46091406-0.19418112-539.11046371v-5.66360406z m-579.30587591-240.16921372v54.85606002c0 17.21735851-9.61194667 26.2144-27.02348743 25.24349553-12.75120185-0.77672334-21.74824334-7.44359481-23.52823296-17.41153963-0.3883611-1.94180779-0.3883611-3.91597853-0.3883611-5.89014926V51.79164445c0-16.24645518 9.61194667-26.05258297 26.05258296-25.08167851 5.50178816 0.3883611 11.16539221 2.36253184 16.08463816 4.9192448 5.85778517 3.10689223 8.80286037 8.60867925 8.80286037 15.85809408a3016.01526557 3016.01526557 0 0 0 0 59.74294073z m380.27061703 0V51.79164445c0-17.44390371 12.33047666-27.83257259 29.77438037-24.69331741 11.74793443 1.94180779 18.99734926 8.02613703 20.77733888 17.24972259 0.3883611 1.94180779 0.3883611 3.88361443 0.38836111 5.85778518 0 38.02706147-0.19418112 76.02176 0.19418112 114.2430026 0.19418112 14.07810333-9.38540259 21.13333703-20.16243371 22.88096369a29.03002112 29.03002112 0 0 1-19.02971221-2.52434887c-7.63777593-3.91597853-11.94211555-9.61194667-11.74793558-18.60898816 0-19.80643555-0.19418112-39.38632704-0.19417998-58.96621852zM476.40019741 715.46905259c14.11046741-16.24645518 27.63839261-31.91036814 41.32813482-47.5742811 60.74620814-69.96979371 121.26587221-139.87486037 182.01208036-210.0388352 8.22031815-9.57958371 18.41480704-15.08137074 31.16600888-12.29811258 13.68974222 2.91271111 22.10424149 12.13629667 26.05258298 25.24349554 4.69270073 15.66391296 1.74762667 29.96856149-9.02940445 42.52558222l-246.28590592 283.82751631c-14.88718962 17.24972259-35.63216555 17.44390371-50.71353742 0-43.49648555-49.93681408-86.99297223-100.29435221-130.48945778-150.23116629-7.44359481-8.64104334-15.08137074-16.86136149-17.21735851-28.60929594-4.14252259-23.10750777 9.19122147-44.85575111 29.77438038-47.41246406 11.74793443-1.39162851 20.97152 3.72179741 28.4151148 12.13629667a60223.53856739 60223.53856739 0 0 1 109.09721259 125.76439296c1.97417074 2.36253184 3.72179741 4.33670371 5.89014927 6.66687147z" p-id="8148" fill="#1296db"></path></svg>