<?xml version="1.0" standalone="no"?><!DOCTYPE svg PUBLIC "-//W3C//DTD SVG 1.1//EN" "http://www.w3.org/Graphics/SVG/1.1/DTD/svg11.dtd"><svg t="1561961434168" class="icon" viewBox="0 0 1024 1024" version="1.1" xmlns="http://www.w3.org/2000/svg" p-id="10051" xmlns:xlink="http://www.w3.org/1999/xlink" width="200" height="200"><defs><style type="text/css"></style></defs><path d="M254.976 552.448h-76.8c-33.28 44.544-66.048 89.6-100.352 133.632-24.576 31.744-45.056 66.56-74.752 94.208v5.12c17.92 0 36.352-1.536 53.76 0.512 20.48 2.048 32.256-6.656 44.032-22.528 47.616-65.024 96.768-129.024 145.408-193.536 4.096-5.632 11.264-9.216 8.704-17.408z m-76.8 0c0.512 0 0.512-0.512 0.512-0.512l-0.512 0.512z m616.448-40.448h113.152c-68.096-91.136-119.808-169.472-188.928-261.632h78.848C736.768 168.96 678.4 92.16 621.056 14.848c-10.752-14.336-15.36-15.36-26.624 0-54.784 74.24-110.592 147.968-165.888 221.696-3.584 5.12-10.752 9.216-7.68 19.456H491.52c-68.608 90.112-137.216 164.864-205.312 256H399.36c-64.512 86.528-161.28 195.584-226.304 282.624h56.32c107.52 0.512 175.104 1.536 282.624 0 23.552-0.512 56.832 34.816 56.32 56.32-0.512 32.768-0.512 77.824-0.512 113.152 0 55.808 12.8 56.32 56.832 56.32s56.832 0.512 56.832-54.784c0-33.792 0-78.336-0.512-114.688-0.512-19.968 37.376-56.832 56.32-56.32 104.96 1.024 121.344 0.512 226.304 0 8.192 0 48.128 7.68 56.32 0-60.928-82.944-160.256-195.584-225.28-282.624z m-616.448 40.448l0.512-0.512-0.512 0.512c0.512-0.512 0-0.512 0 0z m184.32-247.808H289.792c35.84-47.616 68.608-91.648 101.888-135.168 38.4-50.688 38.4-50.688-4.608-100.864-58.88 77.824-117.248 155.648-179.2 237.568h72.704C218.624 389.12 158.72 467.968 95.744 551.936h82.944c37.376-50.176 74.24-100.864 111.616-151.04l72.192-96.256z m34.816 546.304c-52.736 0-54.784 12.288-54.784 52.736v59.904c0 57.856 17.408 56.32 54.784 56.32s58.368 1.024 58.368-56.32v-59.904c0-38.4-5.632-52.736-58.368-52.736z" fill="#1296db" p-id="10052"></path></svg>