<?xml version="1.0" standalone="no"?><!DOCTYPE svg PUBLIC "-//W3C//DTD SVG 1.1//EN" "http://www.w3.org/Graphics/SVG/1.1/DTD/svg11.dtd"><svg t="1561952655383" class="icon" viewBox="0 0 1024 1024" version="1.1" xmlns="http://www.w3.org/2000/svg" p-id="2610" width="200" height="200" xmlns:xlink="http://www.w3.org/1999/xlink"><defs><style type="text/css"></style></defs><path d="M512 512m-512 0a512 512 0 1 0 1024 0 512 512 0 1 0-1024 0Z" fill="#1296db" p-id="2611" data-spm-anchor-id="a313x.7781069.0.i7" class="selected"></path><path d="M512 632.888889a42.666667 42.666667 0 0 0 42.666667-42.666667v-369.777778a42.666667 42.666667 0 0 0-85.333334 0v369.777778a42.666667 42.666667 0 0 0 42.666667 42.666667z m0 42.666667a56.888889 56.888889 0 1 0 56.888889 56.888888 56.888889 56.888889 0 0 0-56.888889-56.888888z" fill="#FFFFFF" p-id="2612"></path></svg>