<?xml version="1.0" standalone="no"?><!DOCTYPE svg PUBLIC "-//W3C//DTD SVG 1.1//EN" "http://www.w3.org/Graphics/SVG/1.1/DTD/svg11.dtd"><svg t="1559634362646" class="icon" style="" viewBox="0 0 1024 1024" version="1.1" xmlns="http://www.w3.org/2000/svg" p-id="10509" xmlns:xlink="http://www.w3.org/1999/xlink" width="200" height="200"><defs><style type="text/css"></style></defs><path d="M998.5728342 929.23505509h-49.08309215V320.21342759a46.03338045 46.03338045 0 0 0-23.01668973-39.76133268l-249.15567384-145.40794125a46.03338045 46.03338045 0 0 0-69.05007116 39.76133268V929.23505509H555.78925375V55.17623759A46.03338045 46.03338045 0 0 0 491.80285384 12.88306929L102.18782839 180.15686653a46.03338045 46.03338045 0 0 0-27.8501958 42.29316829V929.23505509h-48.91046679A16.28430866 16.28430866 0 0 0 9.14285714 945.51936277v53.05347143a16.28430866 16.28430866 0 0 0 16.28430866 16.28430866h973.1456684a16.28430866 16.28430866 0 0 0 16.28430866-16.28430866v-53.05347143a16.28430866 16.28430866 0 0 0-16.28430866-16.28430768zM735.204355 299.78611527a16.28430866 16.28430866 0 0 1 16.22676687-16.34185045h51.78755313a16.28430866 16.28430866 0 0 1 16.28430866 16.28430866v51.78755313a16.28430866 16.28430866 0 0 1-16.28430866 16.34184946h-51.78755312a16.28430866 16.28430866 0 0 1-16.28430867-16.28430768v-51.78755312z m0 130.38955089a16.28430866 16.28430866 0 0 1 16.22676687-16.28430866h51.78755313a16.28430866 16.28430866 0 0 1 16.28430866 16.28430866v51.78755313A16.28430866 16.28430866 0 0 1 803.218675 498.24752795h-51.78755313a16.28430866 16.28430866 0 0 1-16.28430866-16.28430866v-51.78755313z m0 130.38955089A16.28430866 16.28430866 0 0 1 751.43112187 544.28090839h51.78755313a16.28430866 16.28430866 0 0 1 16.28430866 16.28430866v51.78755313a16.28430866 16.28430866 0 0 1-16.28430866 16.28430866h-51.78755313a16.28430866 16.28430866 0 0 1-16.28430866-16.28430866v-51.78755313z m0 130.3895509a16.28430866 16.28430866 0 0 1 16.28430866-16.28430866h51.78755313a16.28430866 16.28430866 0 0 1 16.28430866 16.28430866v51.78755312a16.28430866 16.28430866 0 0 1-16.28430866 16.28430866h-51.78755313a16.28430866 16.28430866 0 0 1-16.28430866-16.28430866v-51.78755312z m0 130.38955089a16.28430866 16.28430866 0 0 1 16.28430866-16.28430866h51.78755313a16.28430866 16.28430866 0 0 1 16.28430866 16.28430866v51.78755312A16.28430866 16.28430866 0 0 1 803.218675 889.5312642h-51.78755313a16.28430866 16.28430866 0 0 1-16.28430866-16.28430866v-51.78755313zM350.76808438 169.33902259A16.28430866 16.28430866 0 0 1 367.05239205 152.99717214h51.78755411a16.28430866 16.28430866 0 0 1 16.1116833 16.34185045v51.78755312a16.28430866 16.28430866 0 0 1-16.28430866 16.28430867h-51.78755312a16.28430866 16.28430866 0 0 1-16.28430866-16.28430867v-51.78755312z m-1e-8 130.38955089a16.28430866 16.28430866 0 0 1 16.28430768-16.28430866h51.78755411a16.28430866 16.28430866 0 0 1 16.1116833 16.34185045v51.78755312a16.28430866 16.28430866 0 0 1-16.28430866 16.28430768h-51.78755312a16.28430866 16.28430866 0 0 1-16.28430866-16.28430768v-51.78755312z m0 130.38955089a16.28430866 16.28430866 0 0 1 16.28430768-16.28430866h51.78755411a16.28430866 16.28430866 0 0 1 16.1116833 16.34185045v51.78755313A16.28430866 16.28430866 0 0 1 418.78240438 498.24752795h-51.78755411a16.28430866 16.28430866 0 0 1-16.28430768-16.28430866v-51.78755313z m0 130.3895509A16.28430866 16.28430866 0 0 1 367.05239205 544.28090839h51.78755411a16.28430866 16.28430866 0 0 1 16.1116833 16.28430866v51.78755313a16.28430866 16.28430866 0 0 1-16.28430866 16.28430866h-51.78755312a16.28430866 16.28430866 0 0 1-16.28430866-16.28430866v-51.78755313z m0 130.38955088a16.28430866 16.28430866 0 0 1 16.28430768-16.28430865h51.78755411a16.28430866 16.28430866 0 0 1 16.1116833 16.39939223v51.78755313a16.28430866 16.28430866 0 0 1-16.28430866 16.28430866h-51.78755312a16.28430866 16.28430866 0 0 1-16.28430866-16.28430866v-51.78755313z m0 130.3895509a16.28430866 16.28430866 0 0 1 16.28430768-16.28430866h51.78755411a16.28430866 16.28430866 0 0 1 16.1116833 16.39939223v51.78755313a16.28430866 16.28430866 0 0 1-16.16922509 16.34185045h-51.7875541a16.28430866 16.28430866 0 0 1-16.28430768-16.28430866v-51.78755313zM193.90933955 299.78611527a16.28430866 16.28430866 0 0 1 16.28430768-16.28430866h51.78755411a16.28430866 16.28430866 0 0 1 16.28430768 16.28430866v51.78755312a16.28430866 16.28430866 0 0 1-16.28430768 16.28430768h-51.78755411a16.28430866 16.28430866 0 0 1-16.28430768-16.28430768v-51.78755312z m0 130.38955089a16.28430866 16.28430866 0 0 1 16.28430768-16.28430866h51.78755411a16.28430866 16.28430866 0 0 1 16.28430768 16.28430866v51.78755313A16.28430866 16.28430866 0 0 1 261.92365955 498.24752795h-51.7875541a16.28430866 16.28430866 0 0 1-16.28430768-16.28430866v-51.78755313z m0 130.38955089A16.28430866 16.28430866 0 0 1 210.19364723 544.28090839h51.78755411a16.28430866 16.28430866 0 0 1 16.28430768 16.28430866v51.78755313a16.28430866 16.28430866 0 0 1-16.28430768 16.28430866h-51.78755411a16.28430866 16.28430866 0 0 1-16.28430768-16.28430866v-51.78755313z m0 130.3895509a16.28430866 16.28430866 0 0 1 16.28430768-16.28430866h51.78755411a16.28430866 16.28430866 0 0 1 16.28430768 16.28430866v51.78755312a16.28430866 16.28430866 0 0 1-16.28430768 16.28430866h-51.78755411a16.28430866 16.28430866 0 0 1-16.28430768-16.28430866v-51.78755312z m0 130.38955089a16.28430866 16.28430866 0 0 1 16.28430768-16.28430866h51.78755411a16.28430866 16.28430866 0 0 1 16.28430768 16.28430866v51.78755312a16.28430866 16.28430866 0 0 1-16.34184947 16.39939224h-51.7875541a16.28430866 16.28430866 0 0 1-16.28430768-16.28430866v-51.78755313z" fill="#d81e06" p-id="10510"></path></svg>