<?xml version="1.0" standalone="no"?><!DOCTYPE svg PUBLIC "-//W3C//DTD SVG 1.1//EN" "http://www.w3.org/Graphics/SVG/1.1/DTD/svg11.dtd"><svg t="1561961586156" class="icon" viewBox="0 0 1024 1024" version="1.1" xmlns="http://www.w3.org/2000/svg" p-id="14167" xmlns:xlink="http://www.w3.org/1999/xlink" width="200" height="200"><defs><style type="text/css"></style></defs><path d="M896 670.72h-30.72v-153.6-5.12c0-15.36-15.36-30.72-30.72-30.72h-286.72V353.28h30.72c35.84 0 66.56-30.72 66.56-66.56V158.72c0-35.84-30.72-66.56-66.56-66.56H450.56c-35.84 0-66.56 30.72-66.56 66.56v128c0 35.84 30.72 66.56 66.56 66.56h30.72v128H189.44c-15.36 0-30.72 15.36-30.72 30.72v163.84h-30.72c-35.84 0-66.56 30.72-66.56 66.56V870.4c0 35.84 30.72 66.56 66.56 66.56H256c35.84 0 66.56-30.72 66.56-66.56v-128c0-35.84-30.72-66.56-66.56-66.56h-35.84v-128h256v128h-25.6c-35.84 0-66.56 30.72-66.56 66.56V870.4c0 35.84 30.72 66.56 66.56 66.56h128c35.84 0 66.56-30.72 66.56-66.56v-128c0-35.84-30.72-66.56-66.56-66.56h-30.72v-128h256v128H768c-35.84 0-66.56 30.72-66.56 66.56V870.4c0 35.84 30.72 66.56 66.56 66.56h128c35.84 0 66.56-30.72 66.56-66.56v-128c0-40.96-30.72-71.68-66.56-71.68z" p-id="14168" fill="#1296db"></path></svg>