<?xml version="1.0" standalone="no"?><!DOCTYPE svg PUBLIC "-//W3C//DTD SVG 1.1//EN" "http://www.w3.org/Graphics/SVG/1.1/DTD/svg11.dtd"><svg t="1563183835924" class="icon" viewBox="0 0 1025 1024" version="1.1" xmlns="http://www.w3.org/2000/svg" p-id="2551" xmlns:xlink="http://www.w3.org/1999/xlink" width="32.03125" height="32"><defs><style type="text/css"></style></defs><path d="M735.81056 463.40096c0-123.83744-95.98976-224.21504-214.32832-224.21504-118.4 0-214.36928 100.38272-214.36928 224.21504 0 51.92192 17.01888 99.54816 45.31712 137.54368l-0.16384 0 169.22112 235.22304 169.24672-235.22304-0.21504 0C718.78656 562.94912 735.81056 515.30752 735.81056 463.40096zM521.47712 534.92224c-38.00576 0-68.80256-30.77632-68.80256-68.77184 0-37.98528 30.7968-68.78208 68.80256-68.78208 37.95456 0 68.7872 30.79168 68.7872 68.78208C590.2592 504.1408 559.43168 534.92224 521.47712 534.92224z" p-id="2552" fill="#1afa29"></path><path d="M437.19168 979.49696c0 0 0.11264 0.02048-1.81248 9.98912-2.28864 11.82208-2.02752 9.85088-2.02752 9.85088-160.32256-36.20864-399.36512-199.66464-399.36512-468.03968 0-264.48896 189.12256-508.6976 488.50432-508.6976 183.17824 0 487.14752 116.06016 487.14752 508.6976 0 148.95104-76.12928 399.19104-406.60992 470.10816 0 0-0.44032-5.0688-1.57184-10.16832-1.12128-5.10976-1.77152-10.40896-1.77152-10.40896 214.64064-35.47136 387.73248-221.6192 389.2224-449.53088 2.2016-337.44896-264.9344-488.46336-466.42176-488.46336-291.70176 0-468.34176 236.7744-468.34176 487.53664C54.14912 832.39936 342.99904 972.4416 437.19168 979.49696z" p-id="2553" fill="#1afa29"></path></svg>