<?xml version="1.0" standalone="no"?><!DOCTYPE svg PUBLIC "-//W3C//DTD SVG 1.1//EN" "http://www.w3.org/Graphics/SVG/1.1/DTD/svg11.dtd"><svg t="1561517955456" class="icon" viewBox="0 0 1024 1024" version="1.1" xmlns="http://www.w3.org/2000/svg" p-id="10222" xmlns:xlink="http://www.w3.org/1999/xlink" width="48" height="48"><defs><style type="text/css"></style></defs><path d="M399.629474 679.612632L323.368421 676.648421 207.764211 293.726316l77.338947-24.252632 80.842105 269.473684 103.208421-268.126315 75.452632 29.103158zM649.701053 781.473684a128.808421 128.808421 0 0 1-128.538948-128.538947h80.842106a47.696842 47.696842 0 1 0 47.696842-47.696842v-80.842106a128.538947 128.538947 0 0 1 0 257.077895z" p-id="10223" fill="#2c2c2c"></path><path d="M649.701053 606.046316a128.538947 128.538947 0 1 1 128.269473-128.538948h-80.842105a47.696842 47.696842 0 1 0-47.427368 47.696843z" p-id="10224" fill="#2c2c2c"></path><path d="M512 80.842105A431.157895 431.157895 0 1 1 80.842105 512 431.157895 431.157895 0 0 1 512 80.842105m0-80.842105a512 512 0 1 0 512 512A512 512 0 0 0 512 0z" p-id="10225" fill="#2c2c2c"></path></svg>