<?xml version="1.0" standalone="no"?><!DOCTYPE svg PUBLIC "-//W3C//DTD SVG 1.1//EN" "http://www.w3.org/Graphics/SVG/1.1/DTD/svg11.dtd"><svg t="1561513793502" class="icon" viewBox="0 0 1024 1024" version="1.1" xmlns="http://www.w3.org/2000/svg" p-id="2127" width="48" height="48" xmlns:xlink="http://www.w3.org/1999/xlink"><defs><style type="text/css"></style></defs><path d="M512 1024C229.376 1024 0 794.624 0 512S229.376 0 512 0s512 229.376 512 512-229.376 512-512 512z m42.496-248.832h60.928v-126.464h99.328v126.464h60.928V490.496h-221.184v284.672z m-36.352-510.976H264.192v510.976h253.952V264.192z m258.048 161.792h-222.208v28.16h222.208v-28.16zM300.544 327.168c18.944-0.512 38.4-0.512 58.368-0.512v64.512H293.888c0-19.456-0.512-37.376 0.512-55.808-0.512-3.072 4.096-8.192 6.144-8.192z m0 128.512c18.944-0.512 38.4-0.512 58.368-0.512v63.488H293.888c0-18.432 0-37.376 0.512-56.32 0-2.048 4.096-6.656 6.144-6.656z m3.584 128c14.848-1.024 30.208-1.024 45.056 0 3.584 0.512 10.24 6.144 10.24 9.728 1.024 17.408 0.512 34.816 0.512 54.272H293.888c0-19.456-0.512-38.4 0.512-56.832 0-2.56 6.144-6.656 9.728-7.168z m127.488-128c17.92-0.512 36.352 0 56.832 0 0 19.968 0.512 37.888-0.512 55.296 0 3.584-6.656 9.216-10.752 9.216-16.896 1.024-34.304 0.512-54.272 0.512 0-20.48 0-39.936 0.512-59.392 0.512-2.048 5.632-5.632 8.192-5.632z m47.616 128.512c3.584 0 9.216 5.632 9.216 9.216 1.024 17.408 0.512 34.816 0.512 53.76H424.448V583.68c19.456 0 36.864-0.512 54.784 0.512z m1.024-192.512c-18.432 1.024-37.376 0.512-56.32 0.512V326.656c18.944 0 37.376-0.512 55.296 0.512 3.072 0 8.704 6.144 8.704 9.728 1.024 15.36 1.024 30.72 0 46.592 0 2.56-4.608 8.192-7.68 8.192z" fill="#2c2c2c" p-id="2128"></path></svg>