<?xml version="1.0" standalone="no"?><!DOCTYPE svg PUBLIC "-//W3C//DTD SVG 1.1//EN" "http://www.w3.org/Graphics/SVG/1.1/DTD/svg11.dtd"><svg t="1561432249876" class="icon" viewBox="0 0 1024 1024" version="1.1" xmlns="http://www.w3.org/2000/svg" p-id="2004" xmlns:xlink="http://www.w3.org/1999/xlink" width="200" height="200"><defs><style type="text/css"></style></defs><path d="M659.6608 7.5776c-102.8096 0-185.7536 83.1488-185.7536 185.5488 0 102.6048 185.7536 334.4384 185.7536 334.4384s185.5488-231.6288 185.5488-334.4384c0.2048-102.4-82.944-185.5488-185.5488-185.5488z m5.5296 301.6704c-66.9696 0-121.4464-54.272-121.4464-121.4464s54.272-121.4464 121.4464-121.4464 121.4464 54.272 121.4464 121.4464-54.4768 121.4464-121.4464 121.4464zM434.3808 92.16H175.3088C126.1568 92.16 86.016 132.3008 86.016 181.4528v290.6112l212.992 99.9424 125.7472-332.1856c-5.7344-19.456-9.0112-37.4784-9.0112-53.0432-0.2048-33.5872 6.5536-65.536 18.6368-94.6176z" fill="#4892f0" p-id="2005"></path><path d="M889.2416 95.6416c11.264 28.2624 17.408 58.9824 17.408 91.136 0 135.7824-245.5552 442.1632-245.5552 442.1632s-106.7008-132.9152-179.4048-262.5536l-93.5936 247.6032 565.6576 265.6256c0.2048-2.8672 0.4096-5.5296 0.4096-8.3968V181.4528c0.2048-40.7552-27.4432-75.1616-64.9216-85.8112zM86.016 580.608v290.4064c0 41.3696 28.672 76.5952 67.1744 86.6304L264.192 664.1664l-178.176-83.5584zM865.0752 960.512c7.9872 0 15.7696-1.024 23.3472-3.072L353.28 706.1504l-96.256 254.3616h608.0512z" fill="#4892f0" p-id="2006"></path></svg>