<?xml version="1.0" standalone="no"?><!DOCTYPE svg PUBLIC "-//W3C//DTD SVG 1.1//EN" "http://www.w3.org/Graphics/SVG/1.1/DTD/svg11.dtd"><svg t="1561967295760" class="icon" viewBox="0 0 1024 1024" version="1.1" xmlns="http://www.w3.org/2000/svg" p-id="1152" width="48" height="48" xmlns:xlink="http://www.w3.org/1999/xlink"><defs><style type="text/css"></style></defs><path d="M954.168136 669.422693s-40.333921-12.641975-84.279835 22.273956c0 0-6.621987-92.10582-113.777778-18.661964 0 0-35.517931-52.975897-101.135802-8.427983l-87.891829 53.577895s109.563786-2.407995 131.837743 14.447972c0 0 31.303939 13.243974 36.119929 44.547913v28.895944s-4.815991 33.711934-51.1699 52.975896c0 0-16.253968 4.815991-39.129923 7.825985 0 0-178.793651 0.601999-186.017637 0 0 0-46.955908-13.243974-108.359788-66.219871 0 0 40.333921 27.089947 107.757789 43.343916 0 0 168.559671 7.825985 205.281599 1.203997 0 0 40.93592-13.243974 44.547913-39.731922 0 0 8.427984-54.781893-62.607877-58.995885-69.229865-3.611993-114.981775 4.815991-188.425632-34.313933-76.453851-40.333921-136.051734-92.707819-168.559671-92.10582 0 0-21.069959-9.029982-92.10582 14.447972-34.313933 10.835979-79.463845 29.497942-140.265726 58.995885-12.039976 6.019988-17.457966 20.46796-12.039977 33.109935l83.677837 186.619635c6.621987 14.447972 24.079953 19.263962 36.721928 10.835979l38.527925-25.28395s40.333921-18.661964 72.841857 2.407995c0 0 208.291593 109.563786 220.33157 107.155791 0 0 40.333921 18.661964 88.493827-8.427984 0 0 355.179306-215.515579 394.911229-267.889477 0.601999 1.805996 28.293945-45.149912-25.283951-62.607877zM378.65726 375.647266c6.621987 0 19.263962-4.213992 41.537919-24.079953 18.661964-16.855967 33.711934-36.721928 45.751911-58.995884 12.039976-22.273956 18.059965-42.139918 18.059965-60.801882 0-12.039976-4.213992-12.039976-5.41799-12.039976-3.009994 0-10.23398 1.805996-21.671957 15.651969l-27.089948 31.905938 15.049971-34.313933c-16.855967 12.039976-31.905938 29.497942-45.751911 51.771899-18.059965 29.497942-27.691946 54.781893-27.691945 75.249853-1.203998 15.651969 4.815991 15.651969 7.223985 15.651969zM574.908877 361.199295c6.621987 0 19.263962-4.213992 41.537919-24.079953 18.661964-16.855967 33.711934-36.721928 45.751911-58.995885 12.039976-22.273956 18.059965-42.741917 18.059964-60.801881 0-12.039976-4.213992-12.039976-5.417989-12.039977-3.009994 0-10.23398 1.805996-21.671958 15.651969L626.078777 252.839506l15.049971-34.915932c-16.855967 12.039976-31.905938 29.497942-45.751911 51.771899-18.059965 29.497942-27.691946 54.781893-27.691946 75.249853-1.203998 16.253968 4.815991 16.253968 7.223986 16.253969z" fill="#333333" p-id="1153"></path><path d="M191.435626 605.008818C252.839506 585.142857 280.531452 587.550852 290.765432 589.958848c24.681952 0.601999 53.577895 19.865961 93.911817 45.75191 24.079953 15.049971 50.567901 32.507937 80.065843 48.159906 23.477954 12.641975 43.945914 19.865961 63.811876 24.079953l117.991769-72.239859c25.283951-17.457966 50.567901-23.477954 74.045856-19.263962 17.457966 3.611993 30.70194 12.641975 38.527924 19.865961 30.70194-18.661964 57.189888-26.487948 78.259847-22.273956l9.631982-592.968842c0-8.427984-7.223986-15.651969-15.65197-15.65197H190.833627c-8.427984 0-15.651969 7.223986-15.651969 15.65197v589.356849l16.253968-5.41799z m521.330982-187.221634s-1.203998 3.009994-3.009994 4.815991l-30.70194 30.70194-22.875956 20.46796c-3.009994 3.009994-46.955908 46.353909-65.015873 57.791887-3.009994 1.805996-6.019988 2.407995-9.029982 2.407995-10.23398 0-19.865961-7.223986-21.671958-7.825985l-3.009994-2.407995 0.601999-4.213992c0.601999-3.611993 1.203998-6.621987 61.40388-51.771899 28.895944-21.671958 57.791887-42.741917 58.393886-42.741916 9.029982-6.621987 15.651969-10.835979 19.865961-13.845973 3.611993-2.407995 8.427984-4.815991 12.641976-1.805997 2.407995 2.407995 3.611993 5.417989 2.407995 8.427984z m45.149912-113.777778c4.815991-3.009994 10.835979-6.621987 15.04997-1.805996 4.213992 5.417989-0.601999 11.437978-9.631981 19.263962h-0.601999c-0.601999 0.601999-9.631981 7.825985-16.855967 13.243974l23.477954-12.641975L698.318636 387.687243c-1.805996 1.805996-24.681952 25.283951-48.761905 46.955908-38.527925 35.517931-52.975897 43.343915-60.199882 43.343915-1.805996 0-3.611993-0.601999-4.815991-1.203997-7.223986-4.213992-3.611993-13.845973-3.009994-16.855967 15.049971-46.353909 146.285714-135.449735 152.907702-140.265726 10.23398-7.223986 18.059965-12.641975 23.477954-15.65197z m-205.281599-50.567901c15.049971-27.691946 33.109935-50.567901 54.781893-68.627866 22.273956-18.661964 42.139918-27.691946 59.597883-27.691946 18.661964 0 24.681952 10.23398 26.487949 18.661964 5.417989 3.611993 9.631981 8.427984 12.039976 15.04997 2.407995 7.223986 4.213992 16.253968 4.213992 28.293945 0 28.293945-6.621987 57.791887-20.46796 87.28983s-30.099941 53.577895-49.965903 71.63786c-19.865961 18.661964-38.527925 27.691946-54.179894 27.691946-15.049971 0-28.293945-7.223986-39.129923-21.671958-10.23398-13.845973-15.049971-31.905938-15.049971-52.975897-0.601999-24.079953 6.621987-49.965902 21.671958-77.657848z m-142.071723-54.179894c22.273956-18.661964 42.139918-27.691946 59.597884-27.691946 18.661964 0 24.681952 10.23398 26.487948 18.661963 5.417989 3.611993 9.631981 8.427984 12.039976 15.049971 2.407995 7.223986 4.213992 16.253968 4.213992 28.293945 0 28.293945-6.621987 57.791887-20.46796 87.289829s-30.099941 53.577895-49.965902 71.63786c-19.865961 18.661964-38.527925 27.691946-54.179894 27.691946-15.049971 0-28.293945-7.223986-39.129924-21.671957-10.23398-13.845973-15.049971-31.905938-15.049971-52.975897 0-24.079953 7.223986-49.965902 22.273957-77.657848 14.447972-27.691946 32.507937-50.567901 54.179894-68.627866zM265.481481 327.48736c9.631981-27.089947 22.273956-53.577895 36.11993-80.065843-7.223986 4.213992-14.447972 8.427984-21.671958 13.845973l-10.23398 7.223986v-30.70194l1.805997-1.805997c23.477954-22.273956 44.547913-39.129924 63.209876-49.965902l5.41799-3.009994 3.009994 5.417989c6.621987 11.437978 10.23398 22.875955 10.23398 32.507936 0 6.019988-1.203998 12.641975-3.009994 19.263963-1.805996 7.223986-8.427984 22.875955-19.865962 48.159906-12.641975 28.293945-22.875955 55.985891-30.70194 81.269841-10.835979 34.313933-10.835979 41.537919-10.23398 42.741917 1.805996 9.029982 2.407995 15.049971 2.407996 18.059964 0 9.029982-5.417989 11.437978-7.825985 12.039977H282.939447c-5.417989 0-12.641975-3.009994-22.273956-9.631981-8.427984-6.621987-13.845973-16.855967-13.845973-29.497943 0-16.855967 6.019988-42.139918 18.661963-75.851852z" fill="#333333" p-id="1154"></path></svg>