<?xml version="1.0" standalone="no"?><!DOCTYPE svg PUBLIC "-//W3C//DTD SVG 1.1//EN" "http://www.w3.org/Graphics/SVG/1.1/DTD/svg11.dtd"><svg t="1560936570126" class="icon" style="" viewBox="0 0 1024 1024" version="1.1" xmlns="http://www.w3.org/2000/svg" p-id="9033" xmlns:xlink="http://www.w3.org/1999/xlink" width="64" height="64"><defs><style type="text/css"></style></defs><path d="M512 0a512 512 0 1 0 512 512 512 512 0 0 0-512-512z m5.888 845.568c-20.16 0-181.312-82.368-181.312-102.848s103.616-362.688 103.616-362.688L360.448 249.6s-19.84-24.832 27.904-24.832h259.008c47.744 0 23.872 24.448 23.872 24.448L595.584 380.032s103.616 344.32 103.616 362.688a564.096 564.096 0 0 1-181.312 102.848z m227.584-268.16l-36.16 42.496-83.2-239.872 120.832 167.616a25.216 25.216 0 0 1-1.472 29.76z" fill="#2c2c2c" p-id="9034"></path></svg>