<?xml version="1.0" standalone="no"?><!DOCTYPE svg PUBLIC "-//W3C//DTD SVG 1.1//EN" "http://www.w3.org/Graphics/SVG/1.1/DTD/svg11.dtd"><svg t="1560936524439" class="icon" style="" viewBox="0 0 1024 1024" version="1.1" xmlns="http://www.w3.org/2000/svg" p-id="6715" xmlns:xlink="http://www.w3.org/1999/xlink" width="64" height="64"><defs><style type="text/css"></style></defs><path d="M512 1024C229.229714 1024 0 794.770286 0 512S229.229714 0 512 0s512 229.229714 512 512-229.229714 512-512 512zM174.811429 804.571429h78.555428V211.18781H174.811429V804.571429z m216.990476 0h214.113524c35.888762 0 67.657143-3.364571 95.329523-10.118096 27.648-6.753524 51.248762-16.65219 70.826667-29.744762 19.553524-13.092571 37.546667-31.036952 54.028191-53.833142 16.457143-22.79619 29.93981-51.614476 40.47238-86.430477 10.532571-34.791619 15.774476-74.727619 15.774477-119.808 0-52.882286-7.753143-99.913143-23.259429-141.043809-15.530667-41.155048-38.936381-74.947048-70.217143-101.424762-24.039619-20.48-53.028571-34.645333-87.04-42.471619-24.283429-5.680762-59.489524-8.508952-105.642666-8.508952H391.801905V804.571429z m78.506666-70.022096V281.209905h124.65981c46.689524 0 80.554667 4.047238 101.595429 12.141714 29.159619 11.337143 53.906286 33.645714 74.288761 66.998857 20.358095 33.328762 30.549333 81.017905 30.549334 143.067429 0 44.81219-5.193143 82.919619-15.579429 114.346666-10.386286 31.451429-24.892952 56.466286-43.52 75.093334-13.214476 13.214476-30.96381 23.478857-53.223619 30.768762-22.25981 7.289905-52.955429 10.922667-92.086857 10.922666H470.308571z" fill="#2c2c2c" p-id="6716"></path></svg>