<?xml version="1.0" standalone="no"?><!DOCTYPE svg PUBLIC "-//W3C//DTD SVG 1.1//EN" "http://www.w3.org/Graphics/SVG/1.1/DTD/svg11.dtd"><svg t="1561359019812" class="icon" viewBox="0 0 1024 1024" version="1.1" xmlns="http://www.w3.org/2000/svg" p-id="5715" xmlns:xlink="http://www.w3.org/1999/xlink" width="48" height="48"><defs><style type="text/css"></style></defs><path d="M705.09818311 971.42020762H332.16069363c65.39662137-44.18690634 123.72333775-74.23400265 136.09567151-150.23548155 10.60485751-60.09419262 3.5349525-118.42090898-38.88447758-155.5379103-56.55924012-51.25681135-100.74614645-116.65343273-182.0500541-146.70052904-125.49081401-45.9543826-220.9345317-291.63358183-174.9801491-418.89187208 10.60485751-30.04709632 30.04709632-40.65195383 58.32671638-44.18690635 38.88447758-5.30242877 106.0485752 3.5349525 106.04857521 3.53495252l10.60485751-17.67476253 523.17297103 1.76747625 5.30242876 21.20971503s83.07138391-12.37233377 116.65343274-8.83738127c37.11700133 3.5349525 54.79176385 26.51214381 60.09419262 63.62914513 28.27962006 174.9801491-60.09419262 332.28553567-220.93453169 418.89187209-65.39662137 35.34952507-121.95586149 91.90876518-157.30538656 159.0728628-47.72185885 100.74614645-10.60485751 185.58500661 130.79324275 273.9588193zM109.4586857 199.03308484c10.60485751 90.14128893 30.04709632 180.28257787 104.28109894 249.21415175 12.37233377 12.37233377 28.27962006 24.74466755 45.9543826 17.67476253 21.20971504-10.60485751 10.60485751-30.04709632 7.06990501-45.95438258-15.90728628-74.23400265-22.97719129-150.23548155-22.9771913-226.23696045 0-45.9543826 10.60485751-100.74614645-63.62914512-97.21119395-67.16409763 0-67.16409763 49.48933509-70.69905013 102.5136227zM749.28508946 467.68947538c121.95586149-37.11700133 210.32967417-258.051533 152.0029578-346.42534569-19.44223878-30.04709632-47.72185885-30.04709632-77.76895516-26.51214381-28.27962006 3.5349525-40.65195383 22.97719129-40.65195382 47.72185885 0 107.81605147-1.76747625 215.63210293-33.58204882 325.21563065z" fill="#FFCA05" p-id="5716"></path><path d="M662.67875303 77.07722335h79.53643142s53.02428761 381.77487075-139.63062403 530.24287605c0 0 116.65343273-273.9588193 60.09419261-530.24287605z" fill="#FADB6D" p-id="5717"></path></svg>