<?xml version="1.0" standalone="no"?><!DOCTYPE svg PUBLIC "-//W3C//DTD SVG 1.1//EN" "http://www.w3.org/Graphics/SVG/1.1/DTD/svg11.dtd"><svg t="1561705484791" class="icon" viewBox="0 0 1024 1024" version="1.1" xmlns="http://www.w3.org/2000/svg" p-id="2647" xmlns:xlink="http://www.w3.org/1999/xlink" width="48" height="48"><defs><style type="text/css"></style></defs><path d="M82.652891 757.467429a32.329143 32.329143 0 0 1-28.818285-17.92 549.668571 549.668571 0 0 1-28.233143-69.851429 32.109714 32.109714 0 0 1 60.854857-19.894857c7.094857 20.48 15.36 41.691429 25.014857 60.928a32.329143 32.329143 0 0 1-14.116571 42.861714 33.645714 33.645714 0 0 1-14.701715 3.876572z m429.933715 266.386285a510.317714 510.317714 0 0 1-206.994286-43.52 515.364571 515.364571 0 0 1-166.546286-117.906285 32.329143 32.329143 0 0 1 1.243429-45.494858 32.329143 32.329143 0 0 1 45.494857 1.243429 446.537143 446.537143 0 0 0 145.481143 103.131429 438.125714 438.125714 0 0 0 180.662857 38.473142c119.808 0 231.936-46.738286 317.147429-131.291428a445.878857 445.878857 0 0 0 131.364571-317.147429A447.561143 447.561143 0 0 0 512.586606 63.488c-119.808 0-231.936 46.738286-317.147429 131.291429A445.878857 445.878857 0 0 0 64.074606 512a31.744 31.744 0 0 1-32.036572 32.036571A31.744 31.744 0 0 1 0.001463 512c0-69.193143 13.458286-136.484571 40.374857-199.241143 25.6-60.854857 62.902857-116.077714 109.568-162.742857A509.659429 509.659429 0 0 1 312.687177 40.374857 505.929143 505.929143 0 0 1 511.92832 0c69.193143 0 136.484571 13.458286 199.241143 40.374857 60.928 25.6 116.004571 62.756571 162.816 109.568a509.586286 509.586286 0 0 1 109.494857 162.742857c26.916571 63.414857 40.374857 130.048 40.374857 199.241143 0 69.193143-13.458286 136.484571-40.374857 199.314286a509.293714 509.293714 0 0 1-109.494857 162.742857 510.025143 510.025143 0 0 1-162.816 109.568 500.370286 500.370286 0 0 1-198.582857 40.301714z m221.988571-352.182857a40.667429 40.667429 0 0 1-40.594286 40.667429H352.257463a40.667429 40.667429 0 0 1-40.594286-40.667429v-341.577143c0-22.528 18.212571-40.667429 40.594286-40.667428h341.723428c22.454857 0 40.594286 18.139429 40.594286 40.594285v341.650286z" p-id="2648" fill="#2c2c2c"></path></svg>