<?xml version="1.0" standalone="no"?><!DOCTYPE svg PUBLIC "-//W3C//DTD SVG 1.1//EN" "http://www.w3.org/Graphics/SVG/1.1/DTD/svg11.dtd"><svg t="1561705525503" class="icon" viewBox="0 0 1024 1024" version="1.1" xmlns="http://www.w3.org/2000/svg" p-id="3458" xmlns:xlink="http://www.w3.org/1999/xlink" width="48" height="48"><defs><style type="text/css"></style></defs><path d="M112.49664 673.93536c-7.86432 0-15.36-4.56704-18.7392-12.20608-6.94272-15.72864-13.06624-31.96928-18.14528-48.27136-3.3792-10.79296 2.64192-22.28224 13.45536-25.64096 10.77248-3.35872 22.26176 2.68288 25.64096 13.43488 4.62848 14.848 10.19904 29.5936 16.50688 43.9296 4.58752 10.32192-0.1024 22.44608-10.4448 26.99264C118.0672 673.3824 115.26144 673.93536 112.49664 673.93536z" p-id="3459" fill="#2c2c2c"></path><path d="M491.2128 968.54016c-141.23008-6.47168-274.1248-78.35648-356.27008-198.144-6.41024-9.33888-4.01408-22.05696 5.28384-28.4672 9.35936-6.41024 22.09792-4.03456 28.48768 5.3248 93.14304 135.76192 257.82272 203.9808 419.77856 173.69088 109.24032-20.41856 203.96032-82.18624 266.73152-173.83424 62.7712-91.70944 86.09792-202.3424 65.6384-311.6032C878.6944 210.06336 661.01248 60.86656 435.44576 103.1168 244.03968 138.93632 101.29408 305.99168 96.03072 500.36736c-0.3072 11.28448-9.728 20.21376-21.03296 19.90656-11.5712-0.45056-20.21376-9.728-19.92704-21.01248C60.86656 285.71648 217.66144 102.1952 427.9296 62.85312c247.76704-46.34624 486.89152 117.49376 533.21728 365.1584 22.44608 119.97184-3.1744 241.54112-72.13056 342.24128-68.95616 100.72064-173.01504 168.52992-293.00736 190.976C560.96768 967.76192 525.824 970.11712 491.2128 968.54016z" p-id="3460" fill="#2c2c2c"></path><path d="M724.3776 476.28288 451.3792 304.49664c-12.36992-7.0656-24.71936-10.6496-36.70016-10.6496-31.86688 0-53.28896 24.82176-53.28896 61.76768L361.39008 698.368c0 36.352 21.9136 61.76768 53.28896 61.76768 11.89888 0 24.41216-3.6864 37.376-11.0592l271.79008-170.96704c22.3232-12.75904 34.59072-30.90432 34.59072-51.07712C758.3744 506.75712 746.22976 488.69376 724.3776 476.28288zM414.67904 722.16576c-13.53728 0-14.99136-16.65024-14.99136-23.79776L399.68768 355.61472c0-7.14752 1.45408-23.79776 14.99136-23.79776 4.89472 0 11.12064 1.92512 16.85504 5.16096l273.12128 171.78624c9.66656 5.5296 15.44192 12.36992 15.44192 18.26816 0 5.87776-5.95968 12.75904-16.13824 18.5344l-271.72864 171.008C425.92256 720.1792 419.69664 722.16576 414.67904 722.16576z" p-id="3461" fill="#2c2c2c"></path></svg>