<?xml version="1.0" standalone="no"?><!DOCTYPE svg PUBLIC "-//W3C//DTD SVG 1.1//EN" "http://www.w3.org/Graphics/SVG/1.1/DTD/svg11.dtd"><svg t="1561513973413" class="icon" viewBox="0 0 1024 1024" version="1.1" xmlns="http://www.w3.org/2000/svg" p-id="6321" xmlns:xlink="http://www.w3.org/1999/xlink" width="48" height="48"><defs><style type="text/css"></style></defs><path d="M511.97597594 992.45195282c-64.86425663 0-127.75856179-12.68456558-187.04929715-37.76541179-57.22468858-24.21598936-108.58757091-58.85830694-152.74331267-102.96600245-44.10769458-44.10769458-78.75001215-95.51862409-102.96600152-152.74331269C44.18456558 639.73453867 31.5 576.84023256 31.5 511.97597594S44.18456558 384.21741415 69.26541179 324.92667879c24.21598936-57.22468858 58.85830694-108.58757091 102.96600151-152.74331267 44.10769458-44.10769458 95.51862409-78.75001215 152.74331269-102.96600152C384.21741415 44.18456558 447.11171931 31.5 511.97597594 31.5s127.75856179 12.68456558 187.04929808 37.76541179c57.22468858 24.21598936 108.58757091 58.85830694 152.74331268 102.96600151 44.10769458 44.10769458 78.75001215 95.51862409 102.96600152 152.74331269 25.0808462 59.24268816 37.76541179 122.18504052 37.76541178 187.04929807s-12.68456558 127.75856179-37.76541178 187.04929715c-24.21598936 57.22468858-58.85830694 108.58757091-102.96600152 152.74331267-44.10769458 44.10769458-95.51862409 78.75001215-152.74331269 102.96600152-59.24268816 24.93670276-122.18504052 37.66931648-187.04929807 37.66931742z m0-929.96125225C264.14646758 62.49070057 62.49070057 264.0984204 62.49070057 511.97597594c0 247.82950835 201.65576701 449.48527536 449.48527537 449.4852763s449.48527536-201.65576701 449.4852763-449.4852763c0-247.87755648-201.65576701-449.48527536-449.4852763-449.48527537z" fill="#2c2c2c" p-id="6322"></path><path d="M442.59524549 769.55914722H303.83378365c-30.65436747 0-55.49497493-24.26403655-55.49497587-54.2457378V579.77113616c0-29.93365313 24.84060839-54.2457378 55.49497587-54.2457378h138.76146184c30.65436747 0 55.49497493 24.26403655 55.49497492 54.2457378v135.59032044c0 29.88560595-24.84060839 54.19768968-55.49497492 54.19769062z m27.77151105-189.78801106c0-14.99085016-12.39628061-27.09884483-27.77151105-27.09884484H303.83378365c-15.32718326 0-27.77151105 12.10799469-27.771512 27.09884484v135.59032044c0 14.99085016 12.39628061 27.09884483 27.771512 27.09884579h138.76146184c15.32718326 0 27.77151105-12.10799469 27.77151105-27.09884579V579.77113616zM720.11816917 769.55914722h-138.76146184c-30.65436747 0-55.49497493-24.26403655-55.49497587-54.2457378V579.77113616c0-29.93365313 24.84060839-54.2457378 55.49497587-54.2457378h138.76146184c30.65436747 0 55.49497493 24.26403655 55.49497493 54.2457378v135.59032044c0.04804718 29.88560595-24.84060839 54.19768968-55.49497493 54.19769062z m27.77151106-189.78801106c0-14.99085016-12.39628061-27.09884483-27.77151106-27.09884484h-138.76146184c-15.32718326 0-27.77151105 12.10799469-27.77151199 27.09884484v135.59032044c0 14.99085016 12.39628061 27.09884483 27.77151199 27.09884579h138.76146184c15.32718326 0 27.77151105-12.10799469 27.77151106-27.09884579V579.77113616zM720.11816917 498.42655352h-138.76146184c-30.65436747 0-55.49497493-24.26403655-55.49497587-54.24573781V308.59049527c0-29.93365313 24.84060839-54.2457378 55.49497587-54.2457378h138.76146184c30.65436747 0 55.49497493 24.26403655 55.49497493 54.2457378v135.59032044c0.04804718 29.93365313-24.84060839 54.2457378-55.49497493 54.24573781z m27.77151106-189.83605825c0-14.99085016-12.39628061-27.09884483-27.77151106-27.09884484h-138.76146184c-15.32718326 0-27.77151105 12.10799469-27.77151199 27.09884484v135.59032044c0 14.99085016 12.39628061 27.09884483 27.77151199 27.09884485h138.76146184c15.32718326 0 27.77151105-12.10799469 27.77151106-27.09884485V308.59049527zM442.59524549 498.42655352H303.83378365c-30.65436747 0-55.49497493-24.26403655-55.49497587-54.24573781V308.59049527c0-29.93365313 24.84060839-54.2457378 55.49497587-54.2457378h138.76146184c30.65436747 0 55.49497493 24.26403655 55.49497492 54.2457378v135.59032044c0 29.93365313-24.84060839 54.2457378-55.49497492 54.24573781z m27.77151105-189.83605825c0-14.99085016-12.39628061-27.09884483-27.77151105-27.09884484H303.83378365c-15.32718326 0-27.77151105 12.10799469-27.771512 27.09884484v135.59032044c0 14.99085016 12.39628061 27.09884483 27.771512 27.09884485h138.76146184c15.32718326 0 27.77151105-12.10799469 27.77151105-27.09884485V308.59049527z" fill="#2c2c2c" p-id="6323"></path></svg>