<?xml version="1.0" standalone="no"?><!DOCTYPE svg PUBLIC "-//W3C//DTD SVG 1.1//EN" "http://www.w3.org/Graphics/SVG/1.1/DTD/svg11.dtd"><svg t="1560935678657" class="icon" style="" viewBox="0 0 1024 1024" version="1.1" xmlns="http://www.w3.org/2000/svg" p-id="3653" xmlns:xlink="http://www.w3.org/1999/xlink" width="64" height="64"><defs><style type="text/css"></style></defs><path d="M513.1 65.5c-247.4 0-448 200.6-448 448s200.6 448 448 448 448-200.6 448-448-200.6-448-448-448z m158.2 711.1l-4 0.5c-2.5 0.3-6.2 0.8-11.6 0.6-45.6 5.4-162.7-16.9-279.4-140.8-23.7-25.2-141-157.3-116.3-286.2v-0.3c5.1-52.3 46.2-94.8 97.6-101 0.3 0 3.4-0.3 3.5-0.3 3.4-0.3 6.8-0.5 10.1-0.5 57.3 0 106.5 44.6 111.9 103.6 2.3 26-4.7 52.5-19.8 74.7-0.6 1-1.3 2-2.2 3-4.6 6.3-9.3 11.7-14.4 16.4l-0.5 0.7c-14.1 23.9-4.8 53.6 27.8 88.1 32.4 34.4 83.2 55.2 106.7 43.7l0.7-0.5c18.1-16.9 38.5-26.5 62.2-29.4l1.7-0.1c0.9-0.1 1.9-0.1 1.9-0.1 29.7-2.6 58.8 6.6 81.9 26.3 22.3 18.8 37.1 34.4 40 77.5 4.4 63.5-37.7 116.9-97.8 124.1z" p-id="3654"></path></svg>