<?xml version="1.0" standalone="no"?><!DOCTYPE svg PUBLIC "-//W3C//DTD SVG 1.1//EN" "http://www.w3.org/Graphics/SVG/1.1/DTD/svg11.dtd"><svg t="1561358742137" class="icon" viewBox="0 0 1024 1024" version="1.1" xmlns="http://www.w3.org/2000/svg" p-id="2947" width="48" height="48" xmlns:xlink="http://www.w3.org/1999/xlink"><defs><style type="text/css"></style></defs><path d="M718.506667 581.973333L501.76 709.12C431.786667 666.453333 298.666667 592.213333 298.666667 592.213333L57.173333 826.88l192.853334 4.266667 4.266666 192.853333L512 767.146667c30.72 29.866667 68.266667 64.853333 66.56 65.706666L769.706667 1024l4.266666-192.853333 192.853334-4.266667-248.32-244.906667z m0 0" fill="#FFC800" p-id="2948"></path><path d="M669.866667 605.013333L501.76 709.12c-69.973333-42.666667-164.693333-104.106667-164.693333-104.106667L111.786667 827.733333l138.24 3.413334 3.413333 109.226666 221.013333-220.16c30.72 29.866667 69.12 0.853333 68.266667 1.706667l228.693333 231.253333 3.413334-122.88 131.413333-3.413333-236.373333-221.866667z m0 0" fill="#FF3B06" p-id="2949"></path><path d="M638.293333 723.626667l74.24 11.946666c2.56 0 5.12 0.853333 7.68 0.853334 10.24 0 19.626667-3.413333 28.16-9.386667 10.24-7.68 17.92-19.626667 18.773334-33.28l11.093333-71.68c2.56-16.213333 12.8-29.013333 26.453333-34.986667l65.706667-33.28c11.093333-5.973333 19.626667-15.36 23.893333-27.306666 1.706667-4.266667 2.56-9.386667 2.56-14.506667 0-7.68-1.706667-15.36-5.12-22.186667l-34.133333-66.56c-3.413333-5.973333-5.12-13.653333-5.12-21.333333 0-7.68 1.706667-15.36 5.12-21.333333l34.133333-66.56c3.413333-5.973333 5.12-13.653333 5.12-21.333334 0-5.12-0.853333-10.24-2.56-14.506666-3.413333-11.946667-11.946667-21.333333-23.893333-27.306667l-67.413333-33.28c-13.653333-6.826667-23.893333-20.48-25.6-35.84l-11.093334-72.533333c-2.56-13.653333-10.24-25.6-21.333333-32.426667-5.12-4.266667-15.36-7.68-25.6-7.68-2.56 0-5.12 0-7.68 0.853333l-74.24 11.946667c-2.56 0-5.12 0.853333-7.68 0.853333-12.8 0-24.746667-5.12-32.426667-13.653333l-52.906666-53.76c-8.533333-8.533333-20.48-13.653333-33.28-13.653333S486.4 6.826667 477.866667 15.36l-52.906667 53.76c-8.533333 8.533333-19.626667 13.653333-32.426667 13.653333-2.56 0-5.12 0-7.68-0.853333L311.466667 68.266667h-7.68c-10.24 0-19.626667 3.413333-28.16 9.386666-10.24 7.68-17.92 19.626667-18.773334 33.28l-11.093333 71.68c-2.56 16.213333-12.8 29.013333-26.453333 34.986667L153.6 250.026667c-11.093333 5.973333-19.626667 15.36-23.893333 27.306666-1.706667 4.266667-2.56 9.386667-2.56 14.506667 0 7.68 1.706667 15.36 5.12 22.186667l34.133333 66.56c3.413333 5.973333 5.12 13.653333 5.12 21.333333 0 7.68-1.706667 14.506667-5.12 21.333333l-34.133333 66.56c-3.413333 5.973333-5.12 13.653333-5.12 21.333334 0 5.12 0.853333 10.24 2.56 14.506666 3.413333 11.946667 11.946667 21.333333 23.893333 27.306667l67.413333 33.28c13.653333 6.826667 23.893333 20.48 25.6 35.84l11.093334 72.533333c2.56 13.653333 10.24 25.6 21.333333 32.426667 5.12 4.266667 15.36 7.68 25.6 7.68 2.56 0 5.12 0 7.68-0.853333l74.24-11.946667c2.56 0 5.12-0.853333 7.68-0.853333 12.8 0 24.746667 5.12 32.426667 13.653333l52.906666 53.76c8.533333 8.533333 20.48 13.653333 33.28 13.653333s24.746667-5.12 33.28-13.653333l52.906667-53.76c8.533333-8.533333 19.626667-13.653333 32.426667-13.653333 2.56 1.706667 5.12 1.706667 6.826666 2.56z m0 0" fill="#FFD31A" p-id="2950"></path><path d="M512 674.133333c-153.6 0-279.04-125.44-279.04-279.04 0-153.6 125.44-279.04 279.04-279.04 153.6 0 279.04 125.44 279.04 279.04C791.04 548.693333 665.6 674.133333 512 674.133333z m0 0" fill="#C8921B" p-id="2951"></path><path d="M512 616.106667c-122.026667 0-220.16-98.986667-220.16-221.013334C291.84 273.066667 389.973333 174.08 512 174.08S732.16 273.066667 732.16 395.093333c0 121.173333-98.133333 221.013333-220.16 221.013334z m0 0" fill="#FFD31A" p-id="2952"></path><path d="M497.493333 302.933333s-17.92 10.24-34.133333 18.773334c-0.853333-13.653333-0.853333-33.28-0.853333-33.28 24.746667-18.773333 33.28-24.746667 58.88-39.253334 6.826667-2.56 11.946667 1.706667 11.946666 4.266667-3.413333 102.4-5.12 134.826667-5.12 257.706667h-34.133333c0-174.933333 3.413333-208.213333 3.413333-208.213334z m0 0" fill="#BD7039" p-id="2953"></path></svg>