<?xml version="1.0" standalone="no"?><!DOCTYPE svg PUBLIC "-//W3C//DTD SVG 1.1//EN" "http://www.w3.org/Graphics/SVG/1.1/DTD/svg11.dtd"><svg t="1561346720354" class="icon" viewBox="0 0 1313 1024" version="1.1" xmlns="http://www.w3.org/2000/svg" p-id="1963" width="256.4453125" height="200" xmlns:xlink="http://www.w3.org/1999/xlink"><defs><style type="text/css"></style></defs><path d="M438.850911 1023.999441h150.366102c19.72725 0 36.714215-16.329856 36.714214-36.742177V662.030277l-102.047621-55.784356-121.788853 72.114212v308.911112a36.574405 36.574405 0 0 0 36.756158 36.728196zM0 667.468902l492.608016-291.197132 28.577249-17.014928 29.262319 16.329857 147.639799 80.964211L1093.401331 118.40544l-55.784356-63.963264 138.104728-27.207107L1313.826431 0l-45.578195 133.351174-45.592177 133.365154-52.386962-59.866819-426.603519 365.366557-30.6045 26.522036-35.386016-19.72725-154.448565-85.074637-464.030767 274.224148L0 667.468902z m124.515156 356.530539h150.366101c19.72725 0 36.728196-16.329856 36.728196-36.742177v-255.154007l-223.836475 131.981031v123.172976a36.588386 36.588386 0 0 0 36.742178 36.742177z m628.671511 0h150.380082c19.72725 0 36.742177-16.329856 36.742177-36.742177V530.734316c0-2.041232 0-4.096445-0.685071-5.466587l-220.481024 188.450458-2.698341-1.356161v275.566328c0 19.741231 16.329856 36.071087 36.742177 36.071087z m314.349737 0h150.366101c19.72725 0 36.742177-16.329856 36.742177-36.742177V436.138589l-90.513262-103.403783-133.351174 114.322977v540.227443a36.588386 36.588386 0 0 0 36.756158 36.714215z" fill="#E1854E" p-id="1964"></path></svg>