<?xml version="1.0" standalone="no"?><!DOCTYPE svg PUBLIC "-//W3C//DTD SVG 1.1//EN" "http://www.w3.org/Graphics/SVG/1.1/DTD/svg11.dtd"><svg t="1561367944489" class="icon" viewBox="0 0 1024 1024" version="1.1" xmlns="http://www.w3.org/2000/svg" p-id="2340" xmlns:xlink="http://www.w3.org/1999/xlink" width="200" height="200"><defs><style type="text/css"></style></defs><path d="M512 0C230.4 0 0 230.4 0 512s230.4 512 512 512 512-230.4 512-512-230.4-512-512-512z m0 832c-32 0-64-32-64-64s32-64 64-64 64 32 64 64-32 64-64 64z m12.8-230.4c0 19.2-25.6 19.2-32 0L448 256s12.8-57.6 64-64c51.2 0 64 64 64 64l-51.2 345.6z" fill="#1296db" p-id="2341"></path></svg>