<?xml version="1.0" standalone="no"?><!DOCTYPE svg PUBLIC "-//W3C//DTD SVG 1.1//EN" "http://www.w3.org/Graphics/SVG/1.1/DTD/svg11.dtd"><svg t="1561358800582" class="icon" viewBox="0 0 1024 1024" version="1.1" xmlns="http://www.w3.org/2000/svg" p-id="4872" xmlns:xlink="http://www.w3.org/1999/xlink" width="48" height="48"><defs><style type="text/css"></style></defs><path d="M306.2 709.7c86.7 1.9 58.7 73.1 129.2 75 0-1.9-135.6 168.6-135.6 168.6l-65.2-98.1-117.8 13.3 147-176.1c-0.4-0.2 4.5 17.3 42.4 17.3zM647.5 762.3c24.6-20.8 2.7-47.3 110.2-58.7l148.9 164.8-115.9-15.1L750.2 959l-166-172.4c23.8 2.4 47.3-6.6 63.3-24.3z" p-id="4873"></path><path d="M835 351.6c17.4-31.4 11-56.1-20.1-74.6-31.1-18.6-46.2-45.5-47-81.4-0.8-36-18.9-54.2-54.5-54.5-35.6-0.4-62.9-15.9-81.1-47C614.1 63 589.1 56.5 558.1 74c-31.1 17.4-62.5 17.4-93.6 0-31.1-17.4-56.1-10.6-74.2 20.1-18.2 30.7-45.1 46.6-81.1 47-36 0.4-53.8 18.6-54.5 54.5-0.8 36-15.9 62.9-47 81.4-31.1 18.5-37.5 43.2-20.1 74.6 17.4 31.4 17.4 62.5 0 93.9-17.4 31.4-11 56.1 20.1 74.6 31.1 18.6 46.2 45.5 47 81.4 0.8 36 18.9 54.2 54.5 54.5 35.6 0.4 62.9 15.9 81.1 47 18.2 31.1 43.2 37.5 74.2 20.1 31.1-17.4 62.5-17.4 93.6 0 31.1 17.4 56.1 10.6 74.2-20.1 18.2-30.7 45.1-46.6 81.1-47 36-0.4 53.8-18.6 54.5-54.5 0.8-36 16.3-63.3 47-81.4 30.7-18.6 37.5-43.2 20.1-74.6-17.5-31.4-17.5-62.5 0-93.9z m-328.2 222c-53.5 0-91.1-18.6-115.6-47.2l37.2-50.8c20.4 19.5 44 32.6 70.3 32.6 31.3 0 51.7-13.2 51.7-38.5 0-29-15.4-46.3-86.2-46.3v-56.7c57.6 0 75.7-17.7 75.7-44.4 0-23.1-13.6-35.8-38.5-35.8-22.7 0-39.9 10.4-60.3 28.1l-40.8-49.4C431.5 239 465 223.5 505 223.5c69.8 0 115.6 32.7 115.6 93 0 33.6-18.1 59.9-54.4 74.4v2.3c37.6 11.3 65.3 38.5 65.3 82.1 0 62.9-57.6 98.3-124.7 98.3z" p-id="4874"></path></svg>