<?xml version="1.0" standalone="no"?><!DOCTYPE svg PUBLIC "-//W3C//DTD SVG 1.1//EN" "http://www.w3.org/Graphics/SVG/1.1/DTD/svg11.dtd"><svg t="1560936536248" class="icon" style="" viewBox="0 0 1024 1024" version="1.1" xmlns="http://www.w3.org/2000/svg" p-id="7472" xmlns:xlink="http://www.w3.org/1999/xlink" width="64" height="64"><defs><style type="text/css"></style></defs><path d="M520.55171 40.972537 523.555286 40.994704 526.558861 41.050121 529.551354 41.11662 532.543846 41.194203 535.536338 41.305037 538.506664 41.426953 541.488073 41.571036 544.458399 41.726202 547.428725 41.903535 550.387967 42.103034 553.347209 42.324701 556.295369 42.55745 559.243528 42.801283 562.180603 43.078365 565.117679 43.366531 568.043672 43.676864 570.969664 43.99828 573.884574 44.341862 576.799483 44.707611 579.714392 45.084444 582.607135 45.483443 585.51096 45.893525 588.403703 46.325774 591.285362 46.780189 594.167022 47.245688 597.037598 47.733353 599.908174 48.232102 602.767666 48.753017 605.616076 49.296099 608.464485 49.850265 611.312894 50.426597 614.15022 51.014012 616.976463 51.623593 619.802706 52.244259 622.617865 52.88709 625.433025 53.552089 628.237101 54.22817 631.030094 54.915335 633.823087 55.624667 636.61608 56.356165 639.386906 57.098746 642.157732 57.852411 644.928558 58.628242 647.677218 59.42624 650.425878 60.235321 653.174537 61.066569 655.912114 61.9089 658.638607 62.762315 661.354016 63.637896 664.069426 64.52456 666.784836 65.433391 669.478079 66.364389 672.171322 67.295387 674.853482 68.259634 677.535641 69.223882 680.206718 70.210296 682.866711 71.218877 685.515621 72.238541 688.164531 73.269288 690.802358 74.322202 693.429101 75.386199 696.055844 76.472363 698.671504 77.56961 701.276081 78.677941 703.869574 79.808438 706.463067 80.950018 709.045477 82.113765 711.616804 83.277512 714.177048 84.474509 716.737291 85.671506 719.286451 86.89067 721.824528 88.132 724.351522 89.37333 726.878515 90.636827 729.394425 91.92249 731.899252 93.208154 734.392996 94.515984 736.875656 95.84598 739.358317 97.175977 741.829894 98.52814 744.279304 99.891387 746.739798 101.2768 749.178125 102.673296 751.605369 104.080876 754.032612 105.499539 756.448773 106.940369 758.85385 108.392281 761.247844 109.855278 763.630754 111.340441 766.002582 112.836687 768.374409 114.344016 770.72407 115.862429 773.07373 117.391925 775.412308 118.943588 777.739802 120.506334 780.056212 122.080163 782.36154 123.676159 784.655784 125.272155 786.950028 126.890317 789.222106 128.519563 791.4831 130.159892 793.744094 131.822388 795.994005 133.484884 798.221749 135.169546 800.449494 136.865292 802.666154 138.572121 804.871732 140.301116 807.066227 142.030112 809.238554 143.781274 811.410882 145.54352 813.572127 147.316848 815.722288 149.101261 817.861366 150.896756 820.000443 152.714418 822.117355 154.53208 824.223183 156.371909 826.317927 158.211737 828.401589 160.073732 830.474167 161.946811 832.535661 163.830973 834.586073 165.737301 836.625401 167.64363 838.642562 169.561042 840.659724 171.50062 842.665802 173.440198 844.660797 175.401943 846.644709 177.363688 848.606454 179.3476 850.568199 181.342595 852.507777 183.348673 854.447355 185.354751 856.364767 187.382996 858.271095 189.422324 860.177424 191.472735 862.061586 193.53423 863.934664 195.606808 865.79666 197.69047 867.636488 199.785214 869.476317 201.891042 871.293979 204.007953 873.111641 206.135948 874.907136 208.286109 876.691548 210.43627 878.464877 212.597515 880.227123 214.758759 881.978285 216.94217 883.70728 219.136665 885.436276 221.342242 887.143105 223.558903 888.838851 225.786648 890.523513 228.014392 892.186009 230.264303 893.848504 232.525297 895.488834 234.786291 897.118079 237.058369 898.736242 239.352613 900.332238 241.646857 901.928234 243.952184 903.502063 246.268595 905.064809 248.596089 906.616472 250.934667 908.145968 253.284327 909.664381 255.633988 911.17171 258.005815 912.667956 260.377642 914.153119 262.760553 915.616115 265.154547 917.068028 267.559624 918.508858 269.975784 919.927521 272.403028 921.335101 274.830272 922.731597 277.268599 924.105927 279.71801 925.480257 282.178503 926.83242 284.65008 928.162417 287.132741 929.492413 289.615401 930.800243 292.109144 932.085907 294.613971 933.37157 297.129882 934.635067 299.656875 935.876397 302.183869 937.117727 304.721946 938.336891 307.271106 939.533887 309.831349 940.730884 312.391593 941.894631 314.962919 943.058378 317.545329 944.199959 320.138823 945.330456 322.732316 946.438786 325.336893 947.536034 327.952553 948.622198 330.579296 949.686195 333.206039 950.739109 335.843866 951.769856 338.492776 952.78952 341.141686 953.798101 343.801679 954.784515 346.472755 955.748763 349.154915 956.71301 351.837075 957.644008 354.530318 958.575005 357.223561 959.483836 359.938971 960.370501 362.643297 961.246082 365.36979 962.099496 368.096283 962.941828 370.83386 963.773075 373.582519 964.582157 376.331179 965.380155 379.079838 966.155986 381.850665 966.909651 384.621491 967.652232 387.392317 968.38373 390.18531 969.093062 392.978303 969.780227 395.771296 970.456308 398.575372 971.121307 401.390531 971.764138 404.205691 972.384803 407.031934 972.994385 409.858176 973.5818 412.695502 974.158132 415.532829 974.712297 418.392321 975.244296 421.240731 975.765211 424.100223 976.275043 426.970799 976.762709 429.841375 977.228208 432.723035 977.682623 435.604694 978.114872 438.497436 978.524954 441.401262 978.923953 444.294005 979.300786 447.208914 979.666535 450.123823 980.010117 453.038732 980.331533 455.964725 980.641866 458.890718 980.930031 461.827793 981.196031 464.764869 981.450947 467.713028 981.683696 470.661187 981.905362 473.62043 982.104862 476.579672 982.282195 479.549998 982.437361 482.520324 982.581444 485.501733 982.70336 488.472058 982.814193 491.464551 982.891776 494.457043 982.958276 497.449535 983.013693 500.442028 983.035859 503.456687 983.046943 506.460262 983.046943 517.543567 983.035859 520.547143 983.013693 523.561802 982.958276 526.554294 982.891776 529.546787 982.814193 532.539279 982.70336 535.531771 982.581444 538.502097 982.437361 541.483506 982.282195 544.453832 982.104862 547.424158 981.905362 550.3834 981.683696 553.342642 981.450947 556.290802 981.196031 559.238961 980.930031 562.176036 980.641866 565.113112 980.331533 568.039105 980.010117 570.965097 979.666535 573.880006 979.300786 576.794916 978.923953 579.709825 978.524954 582.602567 978.114872 585.506393 977.682623 588.399136 977.228208 591.280795 976.762709 594.162455 976.275043 597.033031 975.765211 599.903607 975.244296 602.763099 974.712297 605.611509 974.158132 608.471001 973.5818 611.308327 972.994385 614.145653 972.384803 616.971896 971.764138 619.798139 971.121307 622.613298 970.456308 625.428458 969.780227 628.232534 969.093062 631.025527 968.38373 633.81852 967.652232 636.611513 966.909651 639.382339 966.155986 642.153165 965.380155 644.923991 964.582157 647.672651 963.773075 650.421311 962.941828 653.16997 962.099496 655.907546 961.246082 658.63404 960.370501 661.360533 959.483836 664.064859 958.575005 666.780269 957.644008 669.473512 956.71301 672.166755 955.748763 674.848915 954.784515 677.531074 953.798101 680.202151 952.78952 682.862144 951.769856 685.511054 950.739109 688.159964 949.686195 690.79779 948.622198 693.424534 947.536034 696.051277 946.438786 698.666937 945.330456 701.271514 944.199959 703.865007 943.058378 706.4585 941.894631 709.04091 940.730884 711.612237 939.533887 714.172481 938.336891 716.732724 937.117727 719.281884 935.876397 721.819961 934.635067 724.346955 933.37157 726.873948 932.085907 729.389858 930.800243 731.894685 929.492413 734.388429 928.162417 736.871089 926.83242 739.35375 925.480257 741.825327 924.105927 744.28582 922.731597 746.735231 921.335101 749.173558 919.927521 751.600802 918.508858 754.028045 917.068028 756.444206 915.616115 758.849283 914.153119 761.243277 912.667956 763.626187 911.17171 765.998015 909.664381 768.369842 908.145968 770.719503 906.616472 773.069163 905.064809 775.407741 903.502063 777.735235 901.928234 780.051645 900.332238 782.356973 898.736242 784.651217 897.118079 786.945461 895.488834 789.217539 893.848504 791.478533 892.186009 793.739527 890.523513 795.989438 888.838851 798.217182 887.143105 800.444926 885.436276 802.661587 883.70728 804.867165 881.978285 807.06166 880.227123 809.245071 878.464877 811.406315 876.691548 813.56756 874.907136 815.717721 873.111641 817.867882 871.293979 819.995876 869.476317 822.112788 867.636488 824.218616 865.79666 826.31336 863.934664 828.397022 862.061586 830.4696 860.177424 832.531094 858.271095 834.581506 856.364767 836.620834 854.447355 838.649079 852.507777 840.655157 850.568199 842.661235 848.606454 844.65623 846.644709 846.640142 844.660797 848.601887 842.665802 850.563631 840.659724 852.50321 838.642562 854.442788 836.625401 856.3602 834.586073 858.266528 832.535661 860.172857 830.474167 862.057019 828.401589 863.930097 826.317927 865.792093 824.223183 867.631921 822.117355 869.47175 820.000443 871.289412 817.861366 873.107074 815.722288 874.902569 813.572127 876.686981 811.410882 878.46031 809.238554 880.222556 807.066227 881.973718 804.871732 883.702713 802.666154 885.431709 800.449494 887.138538 798.221749 888.834284 795.994005 890.518946 793.744094 892.181442 791.4831 893.843937 789.222106 895.484266 786.950028 897.113512 784.655784 898.731675 782.36154 900.327671 780.056212 901.923667 777.739802 903.497496 775.412308 905.060242 773.07373 906.611905 770.72407 908.141401 768.374409 909.659814 766.002582 911.167143 763.630754 912.663389 761.247844 914.148552 758.85385 915.611548 756.448773 917.063461 754.032612 918.504291 751.605369 919.922954 749.178125 921.330534 746.739798 922.72703 744.279304 924.112443 741.829894 925.47569 739.358317 926.827853 736.875656 928.15785 734.392996 929.487846 731.899252 930.795676 729.394425 932.081339 726.878515 933.367003 724.351522 934.6305 721.824528 935.87183 719.286451 937.11316 716.737291 938.332323 714.177048 939.52932 711.616804 940.726317 709.045477 941.890064 706.463067 943.053811 703.869574 944.195392 701.276081 945.325889 698.671504 946.434219 696.055844 947.531467 693.429101 948.61763 690.802358 949.681628 688.164531 950.734542 685.515621 951.765289 682.866711 952.784953 680.206718 953.793534 677.535641 954.779948 674.853482 955.744196 672.171322 956.708443 669.478079 957.639441 666.784836 958.570438 664.069426 959.479269 661.354016 960.365934 658.638607 961.241515 655.912114 962.094929 653.174537 962.93726 650.425878 963.768508 647.677218 964.57759 644.928558 965.375588 642.157732 966.151419 639.386906 966.905084 636.61608 967.647665 633.823087 968.379163 631.030094 969.088495 628.237101 969.77566 625.433025 970.451741 622.617865 971.11674 619.802706 971.759571 616.976463 972.380236 614.15022 972.989818 611.312894 973.577233 608.464485 974.153565 605.616076 974.70773 602.767666 975.250812 599.908174 975.771728 597.037598 976.270476 594.167022 976.758142 591.285362 977.223641 588.403703 977.678056 585.51096 978.110305 582.607135 978.520387 579.714392 978.919386 576.799483 979.296219 573.884574 979.661968 570.969664 980.00555 568.043672 980.326966 565.117679 980.637299 562.180603 980.925464 559.243528 981.202547 556.295369 981.44638 553.347209 981.679129 550.387967 981.900795 547.428725 982.100295 544.458399 982.277628 541.488073 982.432794 538.506664 982.576877 535.536338 982.698793 532.543846 982.809626 529.551354 982.887209 526.558861 982.953709 523.555286 983.009126 520.55171 983.031292 517.548134 983.042376 506.464829 983.042376 503.461254 983.031292 500.457678 983.009126 497.454103 982.953709 494.46161 982.887209 491.469118 982.809626 488.476625 982.698793 485.5063 982.576877 482.524891 982.432794 479.554565 982.277628 476.584239 982.100295 473.624997 981.900795 470.665754 981.679129 467.717595 981.44638 464.769436 981.202547 461.83236 980.925464 458.895285 980.637299 455.969292 980.326966 453.0433 980.00555 450.12839 979.661968 447.213481 979.296219 444.298572 978.919386 441.405829 978.520387 438.502003 978.110305 435.609261 977.678056 432.727602 977.223641 429.845942 976.758142 426.975366 976.270476 424.10479 975.771728 421.245298 975.250812 418.396888 974.70773 415.548479 974.153565 412.700069 973.577233 409.862743 972.989818 407.036501 972.380236 404.210258 971.759571 401.395098 971.11674 398.579939 970.451741 395.775863 969.77566 392.98287 969.088495 390.189877 968.379163 387.396884 967.647665 384.626058 966.905084 381.855232 966.151419 379.084406 965.375588 376.335746 964.57759 373.587086 963.768508 370.838427 962.93726 368.10085 962.094929 365.374357 961.241515 362.658948 960.365934 359.943538 959.479269 357.228128 958.570438 354.534885 957.639441 351.841642 956.708443 349.159482 955.744196 346.477322 954.779948 343.806246 953.793534 341.146253 952.784953 338.497343 951.765289 335.848433 950.734542 333.210606 949.681628 330.583863 948.61763 327.95712 947.531467 325.34146 946.434219 322.736883 945.325889 320.14339 944.195392 317.549896 943.053811 314.967486 941.890064 312.39616 940.726317 309.835916 939.52932 307.275673 938.332323 304.726513 937.11316 302.188436 935.87183 299.661442 934.6305 297.134449 933.367003 294.618538 932.081339 292.113712 930.795676 289.619968 929.487846 287.137308 928.15785 284.654647 926.827853 282.18307 925.47569 279.73366 924.112443 277.273166 922.72703 274.834839 921.330534 272.407595 919.922954 269.980352 918.504291 267.564191 917.063461 265.159114 915.611548 262.76512 914.148552 260.382209 912.663389 258.010382 911.167143 255.638555 909.659814 253.288894 908.141401 250.939234 906.611905 248.600656 905.060242 246.273162 903.497496 243.956751 901.923667 241.651424 900.327671 239.35718 898.731675 237.062936 897.113512 234.790858 895.484266 232.529864 893.843937 230.26887 892.181442 228.018959 890.518946 225.791215 888.834284 223.56347 887.138538 221.346809 885.431709 219.141232 883.702713 216.946737 881.973718 214.77441 880.222556 212.602082 878.46031 210.440837 876.686981 208.290676 874.902569 206.151598 873.107074 204.01252 871.289412 201.895609 869.47175 199.789781 867.631921 197.695037 865.792093 195.611375 863.930097 193.538797 862.057019 191.477302 860.172857 189.426891 858.266528 187.387563 856.3602 185.370401 854.442788 183.35324 852.50321 181.347162 850.563631 179.352167 848.601887 177.368255 846.640142 175.40651 844.65623 173.444765 842.661235 171.505187 840.655157 169.565609 838.649079 167.648197 836.620834 165.741868 834.581506 163.83554 832.531094 161.951378 830.4696 160.0783 828.397022 158.216304 826.31336 156.376476 824.218616 154.536647 822.112788 152.718985 819.995876 150.901323 817.867882 149.105828 815.717721 147.321416 813.56756 145.548087 811.406315 143.785841 809.245071 142.034679 807.06166 140.305683 804.867165 138.576688 802.661587 136.869859 800.444926 135.174113 798.217182 133.489451 795.989438 131.826955 793.739527 130.164459 791.478533 128.52413 789.217539 126.894884 786.945461 125.276722 784.651217 123.680726 782.356973 122.08473 780.051645 120.510901 777.735235 118.948155 775.407741 117.396492 773.069163 115.866996 770.719503 114.348583 768.369842 112.841254 765.998015 111.345008 763.626187 109.859845 761.243277 108.396848 758.849283 106.944936 756.444206 105.504106 754.028045 104.085443 751.600802 102.677863 749.173558 101.281367 746.735231 99.907037 744.28582 98.532707 741.825327 97.180544 739.35375 95.850547 736.871089 94.520551 734.388429 93.212721 731.894685 91.927057 729.389858 90.641394 726.873948 89.377897 724.346955 88.136567 721.819961 86.895237 719.281884 85.676073 716.732724 84.479076 714.172481 83.282079 711.612237 82.118332 709.04091 80.954585 706.4585 79.813005 703.865007 78.682508 701.271514 77.574177 698.666937 76.47693 696.051277 75.390766 693.424534 74.326769 690.79779 73.273855 688.159964 72.243108 685.511054 71.223444 682.862144 70.214863 680.202151 69.228449 677.531074 68.264201 674.848915 67.299954 672.166755 66.368956 669.473512 65.437958 666.780269 64.529127 664.064859 63.642463 661.360533 62.766882 658.63404 61.913467 655.907546 61.071136 653.16997 60.239888 650.421311 59.430807 647.672651 58.632809 644.923991 57.856978 642.153165 57.103313 639.382339 56.360732 636.611513 55.629234 633.81852 54.919902 631.025527 54.232737 628.232534 53.556656 625.428458 52.891657 622.613298 52.248826 619.798139 51.62816 616.971896 51.018579 614.145653 50.431164 611.308327 49.854832 608.471001 49.300666 605.611509 48.768668 602.763099 48.247752 599.903607 47.73792 597.033031 47.250255 594.162455 46.784756 591.280795 46.330341 588.399136 45.898092 585.506393 45.48801 582.602567 45.089011 579.709825 44.712178 576.794916 44.346429 573.880006 44.002847 570.965097 43.681431 568.039105 43.371098 565.113112 43.082932 562.176036 42.816933 559.238961 42.562017 556.290802 42.329268 553.342642 42.107602 550.3834 41.908102 547.424158 41.730769 544.453832 41.575603 541.483506 41.43152 538.502097 41.309604 535.531771 41.198771 532.539279 41.121187 529.546787 41.054688 526.554294 40.999271 523.561802 40.977104 520.547143 40.966021 517.543567 40.966021 506.460262 40.977104 503.456687 40.999271 500.442028 41.054688 497.449535 41.121187 494.457043 41.198771 491.464551 41.309604 488.472058 41.43152 485.501733 41.575603 482.520324 41.730769 479.549998 41.908102 476.579672 42.107602 473.62043 42.329268 470.661187 42.562017 467.713028 42.816933 464.764869 43.082932 461.827793 43.371098 458.890718 43.681431 455.964725 44.002847 453.038732 44.346429 450.123823 44.712178 447.208914 45.089011 444.294005 45.48801 441.401262 45.898092 438.497436 46.330341 435.604694 46.784756 432.723035 47.250255 429.841375 47.73792 426.970799 48.247752 424.100223 48.768668 421.240731 49.300666 418.392321 49.854832 415.532829 50.431164 412.695502 51.018579 409.858176 51.62816 407.031934 52.248826 404.205691 52.891657 401.390531 53.556656 398.575372 54.232737 395.771296 54.919902 392.978303 55.629234 390.18531 56.360732 387.392317 57.103313 384.621491 57.856978 381.850665 58.632809 379.079838 59.430807 376.331179 60.239888 373.582519 61.071136 370.83386 61.913467 368.096283 62.766882 365.36979 63.642463 362.643297 64.529127 359.938971 65.437958 357.223561 66.368956 354.530318 67.299954 351.837075 68.264201 349.154915 69.228449 346.472755 70.214863 343.801679 71.223444 341.141686 72.243108 338.492776 73.273855 335.843866 74.326769 333.206039 75.390766 330.579296 76.47693 327.952553 77.574177 325.336893 78.682508 322.732316 79.813005 320.138823 80.954585 317.545329 82.118332 314.962919 83.282079 312.391593 84.479076 309.831349 85.676073 307.271106 86.895237 304.721946 88.136567 302.183869 89.377897 299.656875 90.641394 297.129882 91.927057 294.613971 93.212721 292.109144 94.520551 289.615401 95.850547 287.132741 97.180544 284.65008 98.532707 282.178503 99.907037 279.71801 101.281367 277.268599 102.677863 274.830272 104.085443 272.403028 105.504106 269.975784 106.944936 267.559624 108.396848 265.154547 109.859845 262.760553 111.345008 260.377642 112.841254 258.005815 114.348583 255.633988 115.866996 253.284327 117.396492 250.934667 118.948155 248.596089 120.510901 246.268595 122.08473 243.952184 123.680726 241.646857 125.276722 239.352613 126.894884 237.058369 128.52413 234.786291 130.164459 232.525297 131.826955 230.264303 133.489451 228.014392 135.174113 225.786648 136.869859 223.558903 138.576688 221.342242 140.305683 219.136665 142.034679 216.94217 143.785841 214.758759 145.548087 212.597515 147.321416 210.43627 149.105828 208.286109 150.901323 206.135948 152.718985 204.007953 154.536647 201.891042 156.376476 199.785214 158.216304 197.69047 160.0783 195.606808 161.951378 193.53423 163.83554 191.472735 165.741868 189.422324 167.648197 187.382996 169.565609 185.354751 171.505187 183.348673 173.444765 181.342595 175.40651 179.3476 177.368255 177.363688 179.352167 175.401943 181.347162 173.440198 183.35324 171.50062 185.370401 169.561042 187.387563 167.64363 189.426891 165.737301 191.477302 163.830973 193.538797 161.946811 195.611375 160.073732 197.695037 158.211737 199.789781 156.371909 201.895609 154.53208 204.01252 152.714418 206.151598 150.896756 208.290676 149.101261 210.440837 147.316848 212.602082 145.54352 214.77441 143.781274 216.946737 142.030112 219.141232 140.301116 221.346809 138.572121 223.56347 136.865292 225.791215 135.169546 228.018959 133.484884 230.26887 131.822388 232.529864 130.159892 234.790858 128.519563 237.062936 126.890317 239.35718 125.272155 241.651424 123.676159 243.956751 122.080163 246.273162 120.506334 248.600656 118.943588 250.939234 117.391925 253.288894 115.862429 255.638555 114.344016 258.010382 112.836687 260.382209 111.340441 262.76512 109.855278 265.159114 108.392281 267.564191 106.940369 269.980352 105.499539 272.407595 104.080876 274.834839 102.673296 277.273166 101.2768 279.73366 99.891387 282.18307 98.52814 284.654647 97.175977 287.137308 95.84598 289.619968 94.515984 292.113712 93.208154 294.618538 91.92249 297.134449 90.636827 299.661442 89.37333 302.188436 88.132 304.726513 86.89067 307.275673 85.671506 309.835916 84.474509 312.39616 83.277512 314.967486 82.113765 317.549896 80.950018 320.14339 79.808438 322.736883 78.677941 325.34146 77.56961 327.95712 76.472363 330.583863 75.386199 333.210606 74.322202 335.848433 73.269288 338.497343 72.238541 341.146253 71.218877 343.806246 70.210296 346.477322 69.223882 349.159482 68.259634 351.841642 67.295387 354.534885 66.364389 357.228128 65.433391 359.943538 64.52456 362.658948 63.637896 365.374357 62.762315 368.10085 61.9089 370.838427 61.066569 373.587086 60.235321 376.335746 59.42624 379.084406 58.628242 381.855232 57.852411 384.626058 57.098746 387.396884 56.356165 390.189877 55.624667 392.98287 54.915335 395.775863 54.22817 398.579939 53.552089 401.395098 52.88709 404.210258 52.244259 407.036501 51.623593 409.862743 51.014012 412.700069 50.426597 415.548479 49.850265 418.396888 49.296099 421.245298 48.753017 424.10479 48.232102 426.975366 47.733353 429.845942 47.245688 432.727602 46.780189 435.609261 46.325774 438.502003 45.893525 441.405829 45.483443 444.298572 45.084444 447.213481 44.707611 450.12839 44.341862 453.0433 43.99828 455.969292 43.676864 458.895285 43.366531 461.83236 43.078365 464.769436 42.801283 467.717595 42.55745 470.665754 42.324701 473.624997 42.103034 476.584239 41.903535 479.554565 41.726202 482.524891 41.571036 485.5063 41.426953 488.476625 41.305037 491.469118 41.194203 494.46161 41.11662 497.454103 41.050121 500.457678 40.994704 503.461254 40.972537 506.464829 40.961454 517.548134 40.961454 520.55171 40.972537ZM506.520246 74.211369 503.671837 74.222452 500.878844 74.244619 498.085851 74.288952 495.303941 74.355452 492.522032 74.433035 489.751206 74.532785 486.980379 74.643618 484.209553 74.776618 481.44981 74.9207 478.690067 75.08695 475.941408 75.275366 473.192748 75.474866 470.455172 75.696532 467.717595 75.929281 464.991102 76.173114 462.264609 76.450197 459.538116 76.727279 456.822707 77.037612 454.11838 77.347944 451.414054 77.691527 448.709727 78.035109 446.016484 78.411942 443.323241 78.799857 440.641081 79.198856 437.958921 79.620022 435.287845 80.052271 432.627852 80.495603 429.956775 80.972185 427.307865 81.448767 424.658956 81.947516 422.010046 82.468431 419.372219 83.00043 416.745476 83.543512 414.118733 84.10876 411.491989 84.696175 408.876329 85.283591 406.271753 85.893172 403.667176 86.524921 401.073683 87.167752 398.480189 87.821667 395.897779 88.497749 393.315369 89.184914 390.744042 89.894245 388.183799 90.61466 385.623555 91.346158 383.074395 92.099823 380.525235 92.864571 377.987158 93.651486 375.460165 94.449484 372.933171 95.258565 370.406178 96.089813 367.901351 96.932144 365.396524 97.785559 362.891697 98.66114 360.409037 99.547804 357.915293 100.445552 355.443716 101.365466 352.972139 102.296464 350.511645 103.238545 348.051152 104.202792 345.601741 105.178123 343.163414 106.164537 340.73617 107.173118 338.308927 108.181699 335.881683 109.223529 333.476606 110.26536 331.071528 111.329357 328.677535 112.404438 326.283541 113.490602 323.90063 114.598932 321.528803 115.718346 319.168059 116.848843 316.807315 117.990424 314.457654 119.154171 312.119077 120.317918 309.791583 121.503831 307.464089 122.711911 305.147678 123.919992 302.831267 125.150239 300.537023 126.391569 298.242779 127.643982 295.959618 128.918562 293.687541 130.193142 291.415463 131.489889 289.154469 132.797719 286.904558 134.127716 284.665731 135.457712 282.437986 136.809875 280.210242 138.162039 277.993581 139.536368 275.788003 140.932865 273.593509 142.329361 271.399015 143.736941 269.226687 145.166687 267.054359 146.607517 264.893115 148.05943 262.742953 149.522426 260.603876 150.996506 258.464798 152.481669 256.336803 153.988998 254.230975 155.496328 252.125147 157.025824 250.030403 158.566403 247.935658 160.118066 245.86308 161.680812 243.801585 163.254641 241.74009 164.839554 239.689679 166.43555 237.650351 168.053712 235.622106 169.671875 233.604945 171.312204 231.598866 172.952533 229.603872 174.615029 227.61996 176.288608 225.636048 177.97327 223.674303 179.657932 221.712558 181.364761 219.77298 183.082674 217.833402 184.811669 215.904907 186.551748 213.987495 188.30291 212.09225 190.065156 210.197005 191.838485 208.312843 193.622897 206.439764 195.418392 204.577769 197.236054 202.726857 199.053716 200.887028 200.882461 199.058283 202.72229 197.240621 204.573202 195.422959 206.435197 193.627464 208.308276 191.843052 210.192438 190.069723 212.087683 188.307477 213.982928 186.556315 215.90034 184.816236 217.828835 183.087241 219.768413 181.369328 221.707991 179.662499 223.669736 177.977837 225.631481 176.293175 227.615393 174.619596 229.599304 172.9571 231.594299 171.316771 233.600378 169.676442 235.617539 168.058279 237.645784 166.440117 239.685112 164.844121 241.735523 163.259208 243.797018 161.685379 245.858513 160.122633 247.931091 158.57097 250.025836 157.030391 252.12058 155.500895 254.226408 153.993565 256.332236 152.486236 258.460231 151.001073 260.599308 149.526993 262.738386 148.063997 264.888547 146.612084 267.049792 145.171254 269.22212 143.741508 271.394448 142.333928 273.588942 140.937432 275.783436 139.540935 277.989014 138.166606 280.205675 136.814442 282.433419 135.462279 284.661164 134.132283 286.899991 132.802286 289.149902 131.494456 291.410896 130.197709 293.682974 128.923129 295.955051 127.648549 298.238212 126.396136 300.532456 125.154806 302.8267 123.924559 305.143111 122.716479 307.459522 121.519482 309.787016 120.322485 312.11451 119.158738 314.453087 117.994991 316.802748 116.85341 319.163492 115.722913 321.524236 114.603499 323.896063 113.495169 326.278974 112.409005 328.672968 111.333924 331.066961 110.269927 333.472039 109.228096 335.877116 108.197349 338.30436 107.177685 340.731603 106.169104 343.158847 105.18269 345.597174 104.207359 348.046585 103.243112 350.507078 102.301031 352.967572 101.370033 355.439149 100.450119 357.910726 99.552371 360.40447 98.665707 362.88713 97.790126 365.391957 96.936711 367.896784 96.09438 370.401611 95.263132 372.928604 94.454051 375.444514 93.656053 377.982591 92.869138 380.520668 92.10439 383.069828 91.361809 385.618988 90.619227 388.179232 89.898813 390.739475 89.200564 393.310802 88.502316 395.893212 87.826234 398.475622 87.172319 401.069116 86.529488 403.662609 85.897739 406.267186 85.288158 408.871762 84.700742 411.487422 84.113327 414.103082 83.548079 416.729825 83.004997 419.367652 82.472998 422.005479 81.952083 424.654388 81.453334 427.303298 80.976752 429.952208 80.511253 432.623285 80.056838 435.283278 79.624589 437.954354 79.203423 440.636514 78.804424 443.318674 78.416509 446.011917 78.05076 448.70516 77.696094 451.409487 77.352511 454.113813 77.042179 456.818139 76.731846 459.533549 76.454764 462.260042 76.177681 464.986535 75.933848 467.713028 75.701099 470.450605 75.479433 473.188181 75.279933 475.936841 75.091517 478.6855 74.925268 481.445243 74.781185 484.204986 74.648185 486.975812 74.537352 489.746639 74.437602 492.517465 74.360019 495.299374 74.293519 498.081284 74.249186 500.874277 74.227019 503.66727 74.215936 506.515679 74.215936 517.488151 74.227019 520.33656 74.249186 523.129553 74.293519 525.922546 74.360019 528.704455 74.437602 531.486365 74.537352 534.257191 74.648185 537.028017 74.781185 539.798844 74.925268 542.558587 75.091517 545.31833 75.279933 548.066989 75.479433 550.815649 75.701099 553.553225 75.933848 556.290802 76.177681 559.017295 76.454764 561.743788 76.731846 564.470281 77.042179 567.18569 77.352511 569.890017 77.696094 572.594343 78.05076 575.29867 78.416509 577.991913 78.804424 580.685156 79.203423 583.367316 79.624589 586.049475 80.056838 588.720552 80.511253 591.380545 80.976752 594.051621 81.453334 596.700531 81.952083 599.349441 82.472998 601.998351 83.004997 604.636178 83.548079 607.274004 84.113327 609.900748 84.700742 612.516408 85.288158 615.132068 85.897739 617.736644 86.529488 620.341221 87.172319 622.934714 87.826234 625.528208 88.502316 628.110618 89.200564 630.693028 89.898813 633.264354 90.619227 635.824598 91.361809 638.384841 92.10439 640.934001 92.869138 643.483162 93.656053 646.021238 94.454051 648.559315 95.263132 651.075226 96.09438 653.602219 96.936711 656.107046 97.790126 658.611873 98.665707 661.1167 99.552371 663.59936 100.450119 666.093104 101.370033 668.564681 102.301031 671.036258 103.243112 673.496751 104.207359 675.957245 105.18269 678.406656 106.169104 680.844983 107.177685 683.272226 108.197349 685.69947 109.228096 688.126714 110.269927 690.531791 111.333924 692.936868 112.409005 695.330862 113.495169 697.724856 114.603499 700.107767 115.722913 702.479594 116.85341 704.840338 117.994991 707.201082 119.158738 709.550742 120.322485 711.88932 121.519482 714.216814 122.716479 716.544308 123.924559 718.860719 125.154806 721.177129 126.396136 723.471374 127.648549 725.765618 128.923129 728.048778 130.197709 730.320856 131.494456 732.592933 132.802286 734.853928 134.132283 737.103839 135.462279 739.342666 136.814442 741.570411 138.166606 743.798155 139.540935 746.014816 140.937432 748.220393 142.333928 750.414888 143.741508 752.609382 145.171254 754.78171 146.612084 756.954038 148.063997 759.115282 149.526993 761.265443 151.001073 763.404521 152.486236 765.543599 153.993565 767.671594 155.500895 769.777422 157.030391 771.88325 158.57097 773.977994 160.122633 776.072739 161.685379 778.145317 163.259208 780.206812 164.844121 782.268306 166.440117 784.318718 168.058279 786.358046 169.676442 788.386291 171.316771 790.403452 172.9571 792.40953 174.619596 794.404525 176.293175 796.388437 177.977837 798.372348 179.662499 800.334093 181.369328 802.295838 183.087241 804.235417 184.816236 806.174995 186.556315 808.10349 188.307477 810.020902 190.069723 811.916147 191.843052 813.811392 193.627464 815.695554 195.434042 817.568633 197.240621 819.430628 199.058283 821.28154 200.887028 823.121368 202.726857 824.950114 204.577769 826.767776 206.439764 828.585438 208.312843 830.380933 210.197005 832.165345 212.09225 833.938674 213.987495 835.70092 215.904907 837.452082 217.833402 839.192161 219.77298 840.921156 221.712558 842.639068 223.674303 844.345897 225.636048 846.03056 227.61996 847.715222 229.603872 849.388801 231.598866 851.051297 233.604945 852.691626 235.622106 854.331955 237.650351 855.950118 239.689679 857.56828 241.74009 859.164276 243.801585 860.749189 245.86308 862.323018 247.935658 863.885764 250.030403 865.437427 252.125147 866.978006 254.230975 868.507502 256.336803 870.014832 258.464798 871.522161 260.603876 873.007324 262.742953 874.481404 264.893115 875.9444 267.054359 877.396313 269.226687 878.837142 271.399015 880.266889 273.593509 881.674469 275.788003 883.070965 277.993581 884.467461 280.210242 885.841791 282.437986 887.193954 284.665731 888.546118 286.904558 889.876114 289.154469 891.206111 291.415463 892.513941 293.687541 893.810687 295.959618 895.085268 298.242779 896.359848 300.537023 897.612261 302.831267 898.853591 305.147678 900.083838 307.464089 901.291918 309.791583 902.499999 312.119077 903.685912 314.457654 904.849659 316.807315 906.013406 319.168059 907.154987 321.528803 908.285484 323.90063 909.404898 326.283541 910.513228 328.677535 911.599392 331.071528 912.674472 333.476606 913.73847 335.881683 914.7803 338.308927 915.822131 340.73617 916.830712 343.163414 917.839293 345.601741 918.825707 348.051152 919.801038 350.511645 920.765285 352.972139 921.707366 355.443716 922.638364 357.915293 923.558278 360.409037 924.456026 362.891697 925.34269 365.396524 926.218271 367.901351 927.071686 370.406178 927.914017 372.933171 928.745265 375.460165 929.554346 377.987158 930.352344 380.525235 931.139259 383.074395 931.904007 385.623555 932.646588 388.183799 933.389169 390.744042 934.109584 393.315369 934.818916 395.897779 935.506081 398.480189 936.182162 401.073683 936.836077 403.667176 937.478909 406.271753 938.110657 408.876329 938.720239 411.491989 939.307654 414.118733 939.895069 416.745476 940.460318 419.372219 941.0034 422.010046 941.535399 424.658956 942.056314 427.307865 942.555063 429.956775 943.031645 432.627852 943.508227 435.287845 943.951559 437.958921 944.383808 440.641081 944.804974 443.323241 945.203973 446.016484 945.591888 448.709727 945.968721 451.414054 946.312303 454.11838 946.655885 456.822707 946.966218 459.538116 947.276551 462.264609 947.553633 464.991102 947.830716 467.717595 948.074549 470.455172 948.307298 473.192748 948.528964 475.941408 948.728464 478.690067 948.91688 481.44981 949.083129 484.209553 949.227212 486.980379 949.360212 489.751206 949.471045 492.522032 949.570795 495.303941 949.648378 498.085851 949.714878 500.878844 949.759211 503.671837 949.781377 506.520246 949.792461 517.492718 949.792461 520.341127 949.781377 523.13412 949.759211 525.927113 949.714878 528.709022 949.648378 531.490932 949.570795 534.261758 949.471045 537.032585 949.360212 539.803411 949.227212 542.563154 949.083129 545.322897 948.91688 548.071556 948.728464 550.820216 948.528964 553.557792 948.307298 556.295369 948.074549 559.021862 947.830716 561.748355 947.553633 564.474848 947.276551 567.190257 946.966218 569.894584 946.655885 572.59891 946.312303 575.303237 945.968721 577.99648 945.591888 580.689723 945.203973 583.371883 944.804974 586.054042 944.383808 588.725119 943.951559 591.385112 943.508227 594.056189 943.031645 596.705098 942.555063 599.354008 942.056314 602.002918 941.535399 604.640745 941.0034 607.267488 940.460318 609.894231 939.895069 612.520975 939.307654 615.136635 938.720239 617.741211 938.110657 620.345788 937.478909 622.939281 936.836077 625.532775 936.182162 628.115185 935.506081 630.697595 934.818916 633.268921 934.109584 635.829165 933.389169 638.389408 932.646588 640.938569 931.904007 643.487729 931.139259 646.025805 930.352344 648.552799 929.554346 651.079793 928.745265 653.606786 927.914017 656.111613 927.071686 658.61644 926.218271 661.121267 925.34269 663.603927 924.456026 666.097671 923.558278 668.569248 922.638364 671.040825 921.707366 673.501318 920.765285 675.961812 919.801038 678.411223 918.825707 680.84955 917.839293 683.276793 916.830712 685.704037 915.822131 688.131281 914.7803 690.536358 913.73847 692.941435 912.674472 695.335429 911.599392 697.729423 910.513228 700.112334 909.404898 702.484161 908.285484 704.844905 907.154987 707.205649 906.013406 709.55531 904.849659 711.893887 903.685912 714.221381 902.499999 716.548875 901.291918 718.865286 900.083838 721.181696 898.853591 723.475941 897.612261 725.770185 896.359848 728.053346 895.085268 730.325423 893.810687 732.597501 892.513941 734.858495 891.206111 737.108406 889.876114 739.347233 888.546118 741.574978 887.193954 743.802722 885.841791 746.019383 884.467461 748.224961 883.070965 750.419455 881.674469 752.613949 880.266889 754.786277 878.837142 756.958605 877.396313 759.119849 875.9444 761.27001 874.481404 763.409088 873.007324 765.548166 871.522161 767.665077 870.014832 769.781989 868.507502 771.887817 866.978006 773.982561 865.437427 776.077306 863.885764 778.149884 862.323018 780.211379 860.749189 782.272873 859.164276 784.323285 857.56828 786.362613 855.950118 788.390858 854.331955 790.408019 852.691626 792.414097 851.051297 794.409092 849.388801 796.393004 847.715222 798.376915 846.03056 800.33866 844.345897 802.300405 842.639068 804.239984 840.921156 806.179562 839.192161 808.108057 837.452082 810.025469 835.70092 811.920714 833.938674 813.815959 832.165345 815.700121 830.380933 817.5732 828.585438 819.435195 826.767776 821.286107 824.950114 823.125935 823.121368 824.954681 821.28154 826.772343 819.430628 828.590005 817.568633 830.3855 815.695554 832.169912 813.811392 833.943241 811.916147 835.705487 810.020902 837.456649 808.10349 839.196728 806.174995 840.925723 804.235417 842.643635 802.295838 844.350464 800.334093 846.035127 798.372348 847.719789 796.388437 849.393368 794.404525 851.055864 792.40953 852.696193 790.403452 854.336522 788.386291 855.954685 786.358046 857.572847 784.318718 859.168843 782.268306 860.753756 780.206812 862.327585 778.145317 863.890331 776.072739 865.441994 773.977994 866.982573 771.88325 868.512069 769.777422 870.019399 767.671594 871.526728 765.543599 873.011891 763.404521 874.485971 761.265443 875.948967 759.115282 877.40088 756.954038 878.841709 754.78171 880.271456 752.609382 881.679036 750.414888 883.075532 748.220393 884.472028 746.014816 885.846358 743.798155 887.198521 741.570411 888.550685 739.342666 889.880681 737.103839 891.210678 734.853928 892.518508 732.592933 893.815254 730.320856 895.089835 728.048778 896.364415 725.765618 897.616828 723.471374 898.858158 721.177129 900.088405 718.860719 901.296485 716.544308 902.493482 714.216814 903.690479 711.88932 904.854226 709.550742 906.017973 707.201082 907.159554 704.840338 908.290051 702.479594 909.409465 700.107767 910.517795 697.724856 911.603959 695.330862 912.67904 692.936868 913.743037 690.531791 914.784867 688.126714 915.826698 685.69947 916.835279 683.272226 917.84386 680.844983 918.830274 678.406656 919.805605 675.957245 920.769852 673.496751 921.711933 671.036258 922.642931 668.564681 923.562845 666.093104 924.460593 663.59936 925.347257 661.1167 926.222838 658.611873 927.076253 656.107046 927.918584 653.602219 928.749832 651.075226 929.558913 648.559315 930.356911 646.021238 931.143826 643.483162 931.908574 640.934001 932.651155 638.384841 933.393736 635.824598 934.114151 633.264354 934.8124 630.693028 935.510648 628.110618 936.186729 625.528208 936.840644 622.934714 937.483476 620.341221 938.115224 617.736644 938.724806 615.132068 939.312221 612.516408 939.899637 609.900748 940.464885 607.274004 941.007967 604.636178 941.539966 601.998351 942.060881 599.349441 942.55963 596.700531 943.036212 594.051621 943.501711 591.380545 943.956126 588.720552 944.388375 586.049475 944.809541 583.367316 945.20854 580.685156 945.596455 577.991913 945.962204 575.29867 946.31687 572.594343 946.660453 569.890017 946.970785 567.18569 947.281118 564.470281 947.5582 561.743788 947.835283 559.017295 948.079116 556.290802 948.311865 553.553225 948.533531 550.815649 948.733031 548.066989 948.921447 545.31833 949.087696 542.558587 949.231779 539.798844 949.364779 537.028017 949.475612 534.257191 949.575362 531.486365 949.652945 528.704455 949.719445 525.922546 949.763778 523.129553 949.785945 520.33656 949.797028 517.488151 949.797028 506.515679 949.785945 503.66727 949.763778 500.863193 949.719445 498.081284 949.652945 495.299374 949.575362 492.517465 949.475612 489.746639 949.364779 486.975812 949.231779 484.204986 949.087696 481.445243 948.921447 478.6855 948.733031 475.936841 948.533531 473.188181 948.311865 470.450605 948.079116 467.713028 947.835283 464.986535 947.5582 462.260042 947.281118 459.533549 946.970785 456.818139 946.660453 454.113813 946.31687 451.409487 945.962204 448.70516 945.596455 446.011917 945.20854 443.318674 944.809541 440.636514 944.388375 437.954354 943.956126 435.283278 943.501711 432.623285 943.036212 429.952208 942.55963 427.303298 942.060881 424.654388 941.539966 422.005479 941.007967 419.367652 940.464885 416.729825 939.899637 414.103082 939.312221 411.487422 938.724806 408.871762 938.115224 406.267186 937.483476 403.662609 936.840644 401.069116 936.186729 398.475622 935.510648 395.893212 934.8124 393.310802 934.114151 390.739475 933.393736 388.179232 932.651155 385.618988 931.908574 383.069828 931.143826 380.520668 930.356911 377.982591 929.558913 375.444514 928.749832 372.928604 927.918584 370.401611 927.076253 367.896784 926.222838 365.391957 925.347257 362.88713 924.460593 360.40447 923.562845 357.910726 922.642931 355.439149 921.711933 352.967572 920.769852 350.507078 919.805605 348.046585 918.830274 345.597174 917.84386 343.158847 916.835279 340.731603 915.826698 338.30436 914.784867 335.877116 913.743037 333.472039 912.67904 331.066961 911.603959 328.672968 910.517795 326.278974 909.409465 323.896063 908.290051 321.524236 907.159554 319.163492 906.017973 316.802748 904.854226 314.453087 903.690479 312.11451 902.493482 309.775933 901.296485 307.459522 900.088405 305.143111 898.858158 302.8267 897.616828 300.532456 896.364415 298.238212 895.089835 295.955051 893.815254 293.682974 892.518508 291.410896 891.210678 289.149902 889.880681 286.899991 888.550685 284.661164 887.198521 282.433419 885.846358 280.205675 884.472028 277.989014 883.075532 275.783436 881.679036 273.588942 880.271456 271.394448 878.841709 269.22212 877.40088 267.049792 875.948967 264.888547 874.485971 262.738386 873.011891 260.599308 871.526728 258.460231 870.019399 256.332236 868.512069 254.226408 866.982573 252.12058 865.441994 250.025836 863.890331 247.931091 862.327585 245.858513 860.753756 243.797018 859.168843 241.735523 857.572847 239.685112 855.954685 237.645784 854.336522 235.617539 852.696193 233.600378 851.055864 231.594299 849.393368 229.599304 847.719789 227.615393 846.035127 225.631481 844.339381 223.669736 842.643635 221.707991 840.925723 219.768413 839.196728 217.828835 837.456649 215.90034 835.705487 213.982928 833.943241 212.087683 832.169912 210.192438 830.3855 208.308276 828.590005 206.435197 826.772343 204.573202 824.954681 202.72229 823.125935 200.882461 821.286107 199.053716 819.435195 197.236054 817.5732 195.418392 815.700121 193.622897 813.815959 191.838485 811.920714 190.065156 810.025469 188.30291 808.108057 186.551748 806.179562 184.811669 804.239984 183.082674 802.300405 181.364761 800.33866 179.657932 798.376915 177.97327 796.393004 176.288608 794.409092 174.615029 792.414097 172.952533 790.408019 171.312204 788.390858 169.671875 786.362613 168.053712 784.323285 166.43555 782.272873 164.839554 780.211379 163.254641 778.149884 161.680812 776.077306 160.118066 773.982561 158.566403 771.887817 157.025824 769.781989 155.496328 767.676161 153.988998 765.548166 152.481669 763.409088 150.996506 761.27001 149.522426 759.119849 148.05943 756.958605 146.607517 754.786277 145.166687 752.613949 143.736941 750.419455 142.329361 748.224961 140.932865 746.019383 139.536368 743.802722 138.162039 741.574978 136.809875 739.347233 135.457712 737.108406 134.127716 734.858495 132.797719 732.597501 131.489889 730.325423 130.193142 728.053346 128.918562 725.770185 127.643982 723.475941 126.391569 721.181696 125.150239 718.865286 123.919992 716.548875 122.711911 714.221381 121.503831 711.893887 120.317918 709.55531 119.154171 707.205649 117.990424 704.844905 116.848843 702.484161 115.718346 700.112334 114.598932 697.729423 113.490602 695.335429 112.404438 692.941435 111.329357 690.536358 110.26536 688.131281 109.223529 685.704037 108.181699 683.276793 107.173118 680.84955 106.164537 678.411223 105.178123 675.961812 104.202792 673.501318 103.238545 671.040825 102.296464 668.569248 101.365466 666.097671 100.445552 663.603927 99.547804 661.121267 98.66114 658.61644 97.785559 656.111613 96.932144 653.606786 96.089813 651.079793 95.258565 648.552799 94.449484 646.025805 93.651486 643.487729 92.864571 640.938569 92.099823 638.389408 91.346158 635.829165 90.61466 633.268921 89.894245 630.697595 89.184914 628.115185 88.497749 625.532775 87.821667 622.939281 87.167752 620.345788 86.524921 617.741211 85.893172 615.136635 85.283591 612.520975 84.696175 609.894231 84.10876 607.267488 83.543512 604.640745 83.00043 602.002918 82.468431 599.354008 81.947516 596.705098 81.448767 594.056189 80.972185 591.385112 80.495603 588.725119 80.052271 586.054042 79.620022 583.371883 79.198856 580.689723 78.799857 577.99648 78.411942 575.303237 78.035109 572.59891 77.691527 569.894584 77.347944 567.190257 77.037612 564.474848 76.727279 561.748355 76.450197 559.021862 76.173114 556.295369 75.929281 553.557792 75.696532 550.820216 75.474866 548.071556 75.275366 545.322897 75.08695 542.563154 74.9207 539.803411 74.776618 537.032585 74.643618 534.261758 74.532785 531.490932 74.433035 528.709022 74.355452 525.927113 74.288952 523.13412 74.244619 520.341127 74.222452 517.492718 74.211369 506.520246 74.211369Z" p-id="7473" fill="#2c2c2c"></path><path d="M510.698652 806.806744C379.860237 806.806744 273.804092 749.040558 273.804092 677.774907 273.804092 606.509256 379.860237 548.731988 510.698652 548.731988 641.525984 548.731988 747.593212 606.509256 747.593212 677.774907 747.593212 749.040558 641.525984 806.806744 510.698652 806.806744ZM508.481991 535.387688C417.997889 535.387688 344.648577 461.672627 344.648577 370.745193 344.648577 279.817759 417.997889 206.113781 508.481991 206.113781 598.966093 206.113781 672.315405 279.817759 672.315405 370.745193 672.315405 461.672627 598.966093 535.387688 508.481991 535.387688Z" p-id="7474" fill="#2c2c2c"></path></svg>