<?xml version="1.0" standalone="no"?><!DOCTYPE svg PUBLIC "-//W3C//DTD SVG 1.1//EN" "http://www.w3.org/Graphics/SVG/1.1/DTD/svg11.dtd"><svg t="1561518010942" class="icon" viewBox="0 0 1024 1024" version="1.1" xmlns="http://www.w3.org/2000/svg" p-id="12312" xmlns:xlink="http://www.w3.org/1999/xlink" width="48" height="48"><defs><style type="text/css"></style></defs><path d="M511.2 511.9m-448.2 0a448.2 448.2 0 1 0 896.4 0 448.2 448.2 0 1 0-896.4 0Z" fill="#2c2c2c" p-id="12313" data-spm-anchor-id="a313x.7781069.0.i10" class="selected"></path><path d="M726.1 318.9H297.9c-23.2 0-42 18.8-42 42v257c0 23.2 18.8 42 42 42h150.5v67.8h-67.3c-8.3 0-15 6.7-15 15s6.7 15 15 15h257.4c8.3 0 15-6.7 15-15s-6.7-15-15-15h-63.1V660h150.7c23.2 0 42-18.8 42-42V361c0-23.2-18.8-42.1-42-42.1z m-428.2 30h428.2c6.6 0 12 5.4 12 12v186.9H285.9V360.9c0-6.6 5.4-12 12-12z m247.6 378.9h-67V660h67v67.8zM726.1 630H297.9c-6.6 0-12-5.4-12-12v-40.2h452.2V618c0 6.6-5.4 12-12 12z" fill="#FFFFFF" p-id="12314"></path><path d="M367.5 507.8c8.3 0 15-6.7 15-15v-33.2c0-8.3-6.7-15-15-15s-15 6.7-15 15v33.2c0 8.3 6.7 15 15 15zM437.5 507.8c8.3 0 15-6.7 15-15v-93.2c0-8.3-6.7-15-15-15s-15 6.7-15 15v93.2c0 8.3 6.7 15 15 15zM515.5 507.8c8.3 0 15-6.7 15-15v-63.2c0-8.3-6.7-15-15-15s-15 6.7-15 15v63.2c0 8.3 6.7 15 15 15zM667.5 507.8c8.3 0 15-6.7 15-15v-33.2c0-8.3-6.7-15-15-15s-15 6.7-15 15v33.2c0 8.3 6.7 15 15 15zM593.5 507.8c8.3 0 15-6.7 15-15v-74.2c0-8.3-6.7-15-15-15s-15 6.7-15 15v74.2c0 8.3 6.7 15 15 15z" fill="#FFFFFF" p-id="12315"></path></svg>