<?xml version="1.0" standalone="no"?><!DOCTYPE svg PUBLIC "-//W3C//DTD SVG 1.1//EN" "http://www.w3.org/Graphics/SVG/1.1/DTD/svg11.dtd"><svg t="1561513939147" class="icon" viewBox="0 0 1024 1024" version="1.1" xmlns="http://www.w3.org/2000/svg" p-id="4973" xmlns:xlink="http://www.w3.org/1999/xlink" width="48" height="48"><defs><style type="text/css"></style></defs><path d="M512 0C229.23264 0 0 229.23264 0 512s229.23264 512 512 512 512-229.23264 512-512S794.76736 0 512 0z m-7.65952 204.8c88.29952 0 160.14336 71.33184 160.14336 159.01696 0 87.68512-71.84384 158.99648-160.14336 158.99648-88.28928 0-160.12288-71.3216-160.12288-158.99648C344.2176 276.13184 416.0512 204.8 504.34048 204.8z m67.0208 426.17856h105.82016v44.38016H571.36128v-44.38016zM225.28 819.2l37.02784-271.75936 164.77184-18.19648v44.50304L302.592 587.47904l-24.61696 187.32032h468.03968l-24.68864-187.32032-124.416-13.74208v-44.50304l164.78208 18.19648L798.72 819.2H225.28z" p-id="4974"></path><path d="M504.34048 478.40256c63.73376 0 115.57888-51.4048 115.57888-114.57536 0-63.19104-51.84512-114.60608-115.57888-114.60608-63.71328 0-115.54816 51.41504-115.54816 114.60608 0 63.17056 51.83488 114.57536 115.54816 114.57536z" p-id="4975"></path></svg>