<?xml version="1.0" standalone="no"?><!DOCTYPE svg PUBLIC "-//W3C//DTD SVG 1.1//EN" "http://www.w3.org/Graphics/SVG/1.1/DTD/svg11.dtd"><svg t="1560936550104" class="icon" style="" viewBox="0 0 1024 1024" version="1.1" xmlns="http://www.w3.org/2000/svg" p-id="8242" xmlns:xlink="http://www.w3.org/1999/xlink" width="64" height="64"><defs><style type="text/css"></style></defs><path d="M512 0C228.693333 0 0 228.693333 0 512s228.693333 512 512 512 512-228.693333 512-512S795.306667 0 512 0z m0 993.28C245.76 993.28 30.72 778.24 30.72 512S245.76 30.72 512 30.72 993.28 245.76 993.28 512 778.24 993.28 512 993.28z m201.386667-460.8c44.373333-20.48 71.68-68.266667 71.68-122.88 0-81.92-54.613333-157.013333-136.533334-157.013333-6.826667 0-10.24 3.413333-13.653333 10.24-30.72-30.72-75.093333-51.2-122.88-51.2s-92.16 20.48-122.88 54.613333c0-6.826667-6.826667-10.24-13.653333-10.24-81.92 0-136.533333 75.093333-136.533334 157.013333 0 58.026667 27.306667 102.4 71.68 122.88-102.4 27.306667-174.08 119.466667-174.08 228.693334 0 6.826667 6.826667 13.653333 13.653334 13.653333s13.653333-6.826667 13.653333-13.653333c0-119.466667 95.573333-215.04 215.04-215.04 6.826667 0 13.653333-6.826667 13.653333-13.653334s-6.826667-13.653333-13.653333-13.653333c-68.266667 0-102.4-47.786667-102.4-112.64 0-68.266667 34.133333-129.706667 102.4-129.706667-20.48 27.306667-34.133333 61.44-34.133333 102.4 0 68.266667 40.96 129.706667 102.4 153.6C317.44 573.44 204.8 703.146667 204.8 832.853333c0 6.826667 6.826667 13.653333 13.653333 13.653334s13.653333-6.826667 13.653334-13.653334c0-136.533333 143.36-283.306667 283.306666-283.306666s283.306667 143.36 283.306667 283.306666c0 6.826667 6.826667 13.653333 13.653333 13.653334s13.653333-6.826667 13.653334-13.653334c0-129.706667-112.64-259.413333-242.346667-296.96 61.44-27.306667 102.4-85.333333 102.4-153.6 0-37.546667-13.653333-71.68-34.133333-102.4 68.266667 0 102.4 64.853333 102.4 129.706667 0 68.266667-34.133333 112.64-102.4 112.64-6.826667 0-13.653333 6.826667-13.653334 13.653333s6.826667 13.653333 13.653334 13.653334c119.466667 0 215.04 95.573333 215.04 215.04 0 6.826667 6.826667 13.653333 13.653333 13.653333s13.653333-6.826667 13.653333-13.653333c-6.826667-109.226667-78.506667-201.386667-180.906666-232.106667zM648.533333 375.466667c0 78.506667-54.613333 146.773333-136.533333 146.773333-78.506667 0-136.533333-68.266667-136.533333-146.773333s58.026667-139.946667 136.533333-139.946667c81.92 0 136.533333 61.44 136.533333 139.946667z" p-id="8243" fill="#2c2c2c"></path></svg>