<?xml version="1.0" standalone="no"?><!DOCTYPE svg PUBLIC "-//W3C//DTD SVG 1.1//EN" "http://www.w3.org/Graphics/SVG/1.1/DTD/svg11.dtd"><svg t="1559634412657" class="icon" style="" viewBox="0 0 1194 1024" version="1.1" xmlns="http://www.w3.org/2000/svg" p-id="11117" xmlns:xlink="http://www.w3.org/1999/xlink" width="233.203125" height="200"><defs><style type="text/css"></style></defs><path d="M426.666667 512a256 256 0 1 1 0-512 256 256 0 0 1 0 512zM341.333333 597.333333h170.666667a341.333333 341.333333 0 0 1 341.333333 341.333334v85.333333H0v-85.333333a341.333333 341.333333 0 0 1 341.333333-341.333334z m810.666667-597.333333a42.666667 42.666667 0 1 1 0 85.333333h-341.333333a42.666667 42.666667 0 1 1 0-85.333333h341.333333z m0 256a42.666667 42.666667 0 1 1 0 85.333333h-170.666667a42.666667 42.666667 0 1 1 0-85.333333h170.666667z m0 256a42.666667 42.666667 0 1 1 0 85.333333h-170.666667a42.666667 42.666667 0 1 1 0-85.333333h170.666667z" p-id="11118" fill="#1296db"></path></svg>