<?xml version="1.0" standalone="no"?><!DOCTYPE svg PUBLIC "-//W3C//DTD SVG 1.1//EN" "http://www.w3.org/Graphics/SVG/1.1/DTD/svg11.dtd"><svg t="1560415612937" class="icon" style="" viewBox="0 0 1024 1024" version="1.1" xmlns="http://www.w3.org/2000/svg" p-id="5307" xmlns:xlink="http://www.w3.org/1999/xlink" width="200" height="200"><defs><style type="text/css"></style></defs><path d="M804.571429 146.285714h-73.142858v36.571429h73.142858a36.571429 36.571429 0 0 1 36.571428 36.571428v658.285715a36.571429 36.571429 0 0 1-36.571428 36.571428H219.428571a36.571429 36.571429 0 0 1-36.571428-36.571428V219.428571a36.571429 36.571429 0 0 1 36.571428-36.571428h73.142858V146.285714H219.428571a73.142857 73.142857 0 0 0-73.142857 73.142857v658.285715a73.142857 73.142857 0 0 0 73.142857 73.142857h585.142858a73.142857 73.142857 0 0 0 73.142857-73.142857V219.428571a73.142857 73.142857 0 0 0-73.142857-73.142857z" p-id="5308" fill="#ffffff"></path><path d="M365.714286 219.428571h292.571428a36.571429 36.571429 0 0 0 36.571429-36.571428V109.714286a36.571429 36.571429 0 0 0-36.571429-36.571429h-292.571428a36.571429 36.571429 0 0 0-36.571429 36.571429v73.142857a36.571429 36.571429 0 0 0 36.571429 36.571428z m0-109.714285h292.571428v73.142857h-292.571428zM365.714286 365.714286h292.571428v36.571428h-292.571428zM329.142857 548.571429h365.714286v36.571428H329.142857zM329.142857 731.428571h365.714286v36.571429H329.142857z" p-id="5309" fill="#ffffff"></path></svg>