<?xml version="1.0" standalone="no"?><!DOCTYPE svg PUBLIC "-//W3C//DTD SVG 1.1//EN" "http://www.w3.org/Graphics/SVG/1.1/DTD/svg11.dtd"><svg t="1559634436344" class="icon" style="" viewBox="0 0 1024 1024" version="1.1" xmlns="http://www.w3.org/2000/svg" p-id="12212" xmlns:xlink="http://www.w3.org/1999/xlink" width="200" height="200"><defs><style type="text/css"></style></defs><path d="M786.285714 768h-548.571428c-10.971429 0-18.285714 7.314286-18.285715 18.285714s7.314286 18.285714 18.285715 18.285715h548.571428c10.971429 0 18.285714-7.314286 18.285715-18.285715s-7.314286-18.285714-18.285715-18.285714zM786.285714 621.714286h-548.571428c-10.971429 0-18.285714 7.314286-18.285715 18.285714s7.314286 18.285714 18.285715 18.285714h548.571428c10.971429 0 18.285714-7.314286 18.285715-18.285714s-7.314286-18.285714-18.285715-18.285714zM786.285714 475.428571h-548.571428c-10.971429 0-18.285714 7.314286-18.285715 18.285715s7.314286 18.285714 18.285715 18.285714h548.571428c10.971429 0 18.285714-7.314286 18.285715-18.285714s-7.314286-18.285714-18.285715-18.285715z" fill="#d81e06" p-id="12213"></path><path d="M73.142857 0v1024h877.714286V0H73.142857z m676.571429 36.571429l-29.257143 58.514285c-3.657143 7.314286-14.628571 14.628571-25.6 14.628572H329.142857c-10.971429 0-21.942857-7.314286-25.6-14.628572L274.285714 36.571429h475.428572zM914.285714 987.428571H109.714286V36.571429h128l40.228571 76.8c7.314286 18.285714 29.257143 32.914286 51.2 32.914285h365.714286c18.285714 0 43.885714-14.628571 51.2-32.914285L786.285714 36.571429H914.285714v950.857142z" fill="#d81e06" p-id="12214"></path><path d="M219.428571 347.428571c0 10.971429 7.314286 18.285714 18.285715 18.285715h548.571428c10.971429 0 18.285714-7.314286 18.285715-18.285715s-7.314286-18.285714-18.285715-18.285714h-548.571428c-10.971429 0-18.285714 7.314286-18.285715 18.285714z" fill="#d81e06" p-id="12215"></path></svg>