<?xml version="1.0" standalone="no"?><!DOCTYPE svg PUBLIC "-//W3C//DTD SVG 1.1//EN" "http://www.w3.org/Graphics/SVG/1.1/DTD/svg11.dtd"><svg t="1560216161195" class="icon" style="" viewBox="0 0 1260 1024" version="1.1" xmlns="http://www.w3.org/2000/svg" p-id="2747" xmlns:xlink="http://www.w3.org/1999/xlink" width="246.09375" height="200"><defs><style type="text/css"></style></defs><path d="M1181.379019 157.529218H669.439099l-24.362356-97.869983A78.704529 78.704529 0 0 0 568.715325 0H78.734569A78.794649 78.794649 0 0 0 0 78.764609v866.500822a78.794649 78.794649 0 0 0 78.734569 78.734569h1102.64445a78.794649 78.794649 0 0 0 78.734569-78.734569v-708.941563a78.794649 78.794649 0 0 0-78.734569-78.79465z m16.491903 794.25487H69.272002V65.096456h501.395916l25.053274 100.183056 15.260268 61.04107h586.829383z" p-id="2748" fill="#1296db"></path><path d="M368.349214 552.64398h481.359305v61.19127H368.349214z" p-id="2749" fill="#1296db"></path><path d="M639.639521 342.544943v481.359305h-61.191269V342.544943z" p-id="2750" fill="#1296db"></path></svg>