<?xml version="1.0" standalone="no"?><!DOCTYPE svg PUBLIC "-//W3C//DTD SVG 1.1//EN" "http://www.w3.org/Graphics/SVG/1.1/DTD/svg11.dtd"><svg t="1560510200529" class="icon" style="" viewBox="0 0 1024 1024" version="1.1" xmlns="http://www.w3.org/2000/svg" p-id="8946" xmlns:xlink="http://www.w3.org/1999/xlink" width="200" height="200"><defs><style type="text/css"></style></defs><path d="M739.2 517.12c0 50.56-93.44 157.44-227.2 157.44-129.92 0-227.2-105.6-227.2-157.44S382.08 359.68 512 359.68c134.4 0.64 227.2 105.6 227.2 157.44zM512 388.48c-60.16 0-109.44 57.6-109.44 128.64S451.84 645.76 512 645.76c60.8 0 109.44-57.6 109.44-128.64 0-71.04-48.64-128.64-109.44-128.64z" p-id="8947" fill="#1296db"></path><path d="M512 439.04c-34.56 0-62.72 35.2-62.72 78.08 0 43.52 28.16 78.08 62.72 78.08s62.72-35.2 62.72-78.08c0.64-42.88-27.52-78.08-62.72-78.08z m24.32 87.04c-16 0-29.44-16-29.44-35.84s12.8-35.84 29.44-35.84 29.44 16 29.44 35.84-13.44 35.84-29.44 35.84z" p-id="8948" fill="#1296db"></path><path d="M512 16L52.48 182.4l32.64 513.92S151.04 816 247.04 885.12c103.04 73.6 232.96 123.52 264.32 123.52 31.36 0 158.08-48 260.48-120.96 97.28-69.76 165.76-191.36 165.76-191.36l32.64-513.92L512 16z m335.36 642.56s-53.12 94.72-129.28 149.12c-80 56.96-179.2 94.08-203.52 94.08-24.32 0-125.44-39.04-206.08-96-74.88-53.76-126.72-147.2-126.72-147.2l-25.6-400.64L514.56 128l358.4 129.92-25.6 400.64z" p-id="8949" fill="#1296db"></path></svg>