<?xml version="1.0" standalone="no"?><!DOCTYPE svg PUBLIC "-//W3C//DTD SVG 1.1//EN" "http://www.w3.org/Graphics/SVG/1.1/DTD/svg11.dtd"><svg t="1559634374848" class="icon" style="" viewBox="0 0 1024 1024" version="1.1" xmlns="http://www.w3.org/2000/svg" p-id="10622" xmlns:xlink="http://www.w3.org/1999/xlink" width="200" height="200"><defs><style type="text/css"></style></defs><path d="M969.1 680.7h-67.4V479.2c0-14.6-11.4-26.2-25.9-26.2H539.4V299.8h66.9c30.6 0 55.5-25.1 55.5-56V56c0-30.9-24.9-56-55.5-56H420.2c-30.6 0-55.5 25.1-55.5 56v187.8c0 30.9 24.9 56 55.5 56h67.4v153.3H150.1c-14.5 0-25.9 11.5-25.9 26.2v201.4H56.8c-30.6 0-55.5 25.1-55.5 56v187.8c0 30.9 24.9 56 55.5 56h186.1c30.6 0 55.5-25.1 55.5-56V736.6c0-30.9-24.9-56-55.5-56h-67.4V505.4H487l0.5 175.3h-67.9c-30.6 0-55.5 25.1-55.5 56v187.8c0 30.9 24.9 56 55.5 56h186.1c30.6 0 55.5-25.1 55.5-56V736.6c0-30.9-24.9-56-55.5-56h-65.8l-0.5-175.3h310.5v175.3h-67.4c-30.6 0-55.5 25.1-55.5 56v187.8c0 30.9 24.9 56 55.5 56h186.1c30.6 0 55.5-25.1 55.5-56V736.6c0.4-30.8-24.5-55.9-55-55.9z" fill="#6DC7D9" p-id="10623"></path></svg>